<svg width="344" height="126" viewBox="0 0 344 126" fill="none" xmlns="http://www.w3.org/2000/svg">
<path id="sound-waves" d="M1 66L9.90267 27.7185C10.1487 26.6605 11.6678 26.6984 11.8608 27.7673L23.1505 90.295C23.343 91.3611 24.8565 91.4028 25.1074 90.349L38.0062 36.1738C38.2514 35.1442 39.7187 35.1512 39.954 36.183L51.3193 86.0155C51.5344 86.9584 52.8294 87.0772 53.2125 86.1892L72.6739 41.0742C73.0673 40.1621 74.4059 40.3195 74.5771 41.2979L86.6246 110.141C86.8275 111.3 88.5173 111.218 88.6068 110.044L96.0701 12.1919C96.1636 10.9667 97.9566 10.9569 98.0634 12.181L107.057 115.194C107.162 116.406 108.931 116.414 109.048 115.204L117.266 30.5563C117.379 29.3926 119.056 29.3352 119.248 30.4885L127.984 82.9021C128.17 84.0217 129.782 84.014 129.958 82.8927L135.849 45.3388C136.029 44.187 137.7 44.2234 137.83 45.382L144.866 107.922C145.001 109.123 146.754 109.099 146.856 107.895L155.077 10.8928C155.18 9.68022 156.95 9.66839 157.069 10.8795L165.986 101.677C166.104 102.882 167.863 102.879 167.977 101.673L173.343 44.9402C173.452 43.7896 175.102 43.7101 175.321 44.8449L183.752 88.5317C183.969 89.6571 185.601 89.5918 185.727 88.4526L192.898 23.9203C193.031 22.7213 194.78 22.7402 194.888 23.9418L203.017 114.991C203.125 116.204 204.898 116.207 205.009 114.993L214.066 16.1909C214.176 14.9866 215.931 14.9761 216.056 16.179L225.182 104.115C225.303 105.285 226.993 105.322 227.166 104.159L236.366 42.2665C236.522 41.2185 237.987 41.1007 238.308 42.1104L243.462 58.3101C243.698 59.0523 244.655 59.2515 245.168 58.6654L249.731 53.4501C250.265 52.8403 251.264 53.085 251.455 53.8722L259.033 85.0247C259.28 86.0418 260.726 86.0434 260.976 85.0269L272.944 36.299C273.198 35.264 274.679 35.2917 274.895 36.3354L285.955 89.9366C286.178 91.0141 287.723 90.9949 287.919 89.9122L299.21 27.3741C299.4 26.3244 300.881 26.2611 301.16 27.2908L310 60M310 60C309.634 41.9735 309 35 315 32C320.555 29.2226 328.821 29.9597 326.713 40.3206C326.527 41.2374 327.564 42.0441 328.39 41.6042C336.713 37.1709 342.5 38.7671 342.5 47C342.5 56 331.982 60.2217 310 60Z" stroke="black" stroke-width="2"/>
</svg>
