<svg width="735" height="341" viewBox="0 0 735 341" fill="none" xmlns="http://www.w3.org/2000/svg">
<path d="M621.5 1.49999C702.878 110.547 681 181 693 197.5C704.899 213.861 726.486 236.18 733.816 210.66C733.938 210.239 734.001 209.754 733.996 209.315C733.034 125.048 554.205 150.958 399.943 137.447C397.201 137.207 395.197 134.784 395.441 132.042L398.843 93.7646C398.945 92.623 398.644 91.463 397.987 90.524C374.908 57.5508 344.529 58.8063 279.423 76.5603C277.386 77.1158 275.895 78.905 275.739 81.0107L272.915 118.933C272.693 121.904 275.102 124.407 278.079 124.302C328.042 122.54 363.573 121.664 388.235 131.549C392.372 133.207 391.527 138.603 387.134 139.354C342.938 146.911 310.027 138.685 272.982 127.644C272.662 127.549 272.329 127.484 271.997 127.455C265.788 126.896 261.676 126.615 258.684 126.775C256.231 126.905 253.516 128.752 252.898 131.129C251.105 138.029 248.806 152.513 250.234 157.544C250.53 158.588 251.647 159.055 252.726 159.173C305.365 164.909 311.508 208.981 302.321 244.204C300.768 250.161 302.394 244.42 305.965 239.404C313.707 228.527 320.386 218.807 323.548 214.172C324.738 212.428 326.873 211.645 328.915 212.181C336.931 214.284 336.219 214.582 339.63 219.57C340.476 220.806 340.769 222.343 340.475 223.812C339.529 228.556 340.139 229.269 335.376 232.49C334.395 233.153 333.189 233.423 332.021 233.233C323.59 231.862 324.279 229.79 315.281 222.518C314.458 221.853 313.837 220.945 313.561 219.923C311.309 211.604 312.993 213.315 316.758 209.747C317.261 209.271 317.831 208.85 318.477 208.599C321.929 207.261 321.679 208.365 323.844 210.186C326.208 212.173 327.605 215.44 326.072 218.121L306.223 252.826C305.968 253.273 305.785 253.756 305.668 254.257C303.81 262.199 299.95 269.101 305.241 275.34C305.621 275.788 305.948 276.283 306.229 276.8C309.487 282.787 317.154 282.348 325.423 283.757C327.556 284.121 329.748 283.211 330.834 281.341V281.341C333.16 277.336 329.084 272.662 324.8 274.421L310 280.5C282.876 288.523 269.755 287.834 243.24 295.478C242.091 295.809 240.844 295.743 239.76 295.24C236.715 293.825 239.652 294.496 269.635 300.687C272.843 301.349 275.478 298.568 272.882 296.571C263.04 288.999 230.615 289.234 184.76 292.938C184.261 292.979 183.726 293.107 183.265 293.304C168.579 299.596 204.306 298.303 200.546 288.107C200.266 287.349 199.619 286.775 198.93 286.354C141.449 251.214 151.207 185.718 197.568 164.08C199.07 163.379 200.2 162.018 200.506 160.389C204.647 138.301 200.251 141.895 200.01 119.897C199.997 118.682 199.569 117.484 198.711 116.624C173.061 90.9052 101.185 110.921 100.773 121.181C100.637 124.59 105.725 121.489 105.458 118.087L102.269 77.4273C102.107 75.3629 103.241 73.4049 105.119 72.5332C141.144 55.8136 159.361 55.4178 193.298 69.8356C194.964 70.5434 196.11 72.1158 196.288 73.9172L200 111.5M200 111.5C208.649 120.684 208.814 97.4699 210.462 64.7591C210.487 64.2594 210.578 63.7869 210.749 63.3168C213.412 56.0021 236.312 -7.15266 225 15C213.778 36.9756 250.916 31.908 281.703 22.9195C284.879 21.9923 286.179 18.2492 283.798 15.9521C255.428 -11.4172 168.097 5.53193 168 21C167.707 31.919 212.368 31.6468 223.639 31.2003C225.849 31.1128 224.581 32.4567 223.97 34.5819L213.646 70.4912C213.549 70.8295 213.487 71.1818 213.463 71.5329C210.291 117.29 206.779 148.354 215.92 158.406C216.292 158.815 216.774 159.124 217.275 159.358C285.852 191.356 266.978 265.522 231.149 286.354C230.398 286.79 229.527 286.99 228.658 286.974C131.899 285.142 77.9255 297.794 -17 340M200 111.5C213.886 124.226 99.4619 129.762 108.5 120C117.355 110.436 160.763 95.5107 201.002 113.818C202.564 114.529 203.611 116.034 203.794 117.74L207.521 152.533C207.794 155.073 209.938 157 212.493 157H239.467C241.821 157 243.851 155.357 244.408 153.071C246.299 145.304 248.033 140.063 248.779 125.53C248.931 122.573 251.55 120.335 254.485 120.722L268 122.5" stroke="black" stroke-width="1.5"/>
</svg>
