<svg width="118" height="151" viewBox="0 0 118 151" fill="none" xmlns="http://www.w3.org/2000/svg">
<path d="M0.332538 149.418C16.1889 150.81 27.4955 146.249 40.0667 132.53C41.3218 131.16 38.6656 125.796 36.871 125.316V125.316C31.2385 123.809 47.6757 70.8065 57.5022 30.098C57.5748 29.7972 57.5777 29.4864 57.4981 29.1873C56.7047 26.2062 55.0762 23.8949 55.1924 19.5902C55.1973 19.4087 55.2306 19.2268 55.2883 19.0546C56.8809 14.3059 59.2331 10.8694 64.7658 2.41731M64.7658 2.41731C71.0396 1.29128 79.1047 5.68001 79.1047 5.68001M64.7658 2.41731C72.1902 -1.14526 79.1047 5.68001 79.1047 5.68001M79.1047 5.68001C79.1047 5.68001 79.4594 21.2081 77.3611 25.9089C75.4129 30.2736 73.1399 30.0871 70.4899 31.6822C70.0885 31.9238 69.8447 32.3534 69.7992 32.8197V32.8197C69.64 34.4488 66.9582 34.9551 65.4296 34.3696C64.5073 34.0163 63.5483 34.0173 62.563 34.2342C61.4487 34.4795 60.9602 35.8014 61.6899 36.6785C62.9252 38.1636 64.4054 38.4804 66.5214 38.2107C67.907 38.034 69.17 39.1306 68.9975 40.5166L68.8302 41.8611C68.6566 43.2552 67.1435 44.0273 65.8723 43.4292C63.1755 42.1602 61.3842 41.8049 59.9493 42.9029C59.2042 43.4731 59.3008 44.633 60.1068 45.1132C61.28 45.8121 62.6372 45.8208 64.7848 44.9841C66.3121 44.3891 68.0362 45.5537 67.8214 47.1787L67.3325 50.878M67.1312 52.4014C63.5751 50.3855 61.4049 49.655 59.1319 50.3056C57.9456 50.6451 57.6821 52.2075 58.7249 52.867C60.6524 54.086 62.9132 53.5961 67.3325 50.878M67.1312 52.4014L67.3325 50.878M67.1312 52.4014L64.4015 60.6707M64.5322 62.165C65.3138 60.0692 58.4269 56.1743 56.0236 57.3884C53.6202 58.6025 56.7991 64.1399 64.4015 60.6707M64.4015 60.6707L62.8971 69.1322C62.7637 69.8825 62.2146 70.4948 61.4798 70.697C57.3205 71.8416 54.855 72.1173 53.3682 70.3065C52.7192 69.5162 53.1862 68.3715 54.1273 67.9713C57.5598 66.5114 59.4375 66.9031 61.5539 69.2235C61.9374 69.644 62.0865 70.2244 61.9971 70.7864L61.0257 76.8947C60.7925 78.3612 59.1052 79.0594 57.8686 78.2374C55.5055 76.6664 54.0006 75.9988 53.1078 76.7874C52.8184 77.0429 52.7427 77.458 52.7999 77.8398C53.0595 79.5715 54.1082 80.2068 57.4142 79.7019C58.8455 79.4833 60.1334 80.6913 59.8689 82.1148L59.3265 85.035C59.0525 86.5096 57.3259 87.1501 56.1157 86.2641C54.4334 85.0326 53.0271 84.2281 51.4358 84.0285C50.4997 83.9112 49.7256 84.7077 49.7744 85.6498C49.9308 88.6717 51.7321 89.0481 55.1574 88.2535C56.6887 87.8982 58.1147 89.2479 57.7117 90.7674L48.9323 123.867C48.8617 124.133 48.8476 124.416 48.8893 124.688C50.1835 133.144 50.7042 137.303 50.4785 138.937C50.4042 139.475 49.871 139.679 49.3311 139.624C40.7748 138.745 35.4252 138.454 28.9993 134.252C28.4118 133.868 28.1628 133.195 28.5244 132.593C29.3668 131.191 31.3947 128.466 34.9311 123.811C35.1084 123.578 35.3433 123.38 35.6036 123.246C70.2873 105.301 96.9673 123.042 116.5 141" stroke="black" stroke-width="1.5"/>
</svg>
