<?xml version="1.0" standalone="no"?>
<!DOCTYPE svg PUBLIC "-//W3C//DTD SVG 20010904//EN"
 "http://www.w3.org/TR/2001/REC-SVG-20010904/DTD/svg10.dtd">
<svg version="1.0" xmlns="http://www.w3.org/2000/svg"
 width="1790.000000pt" height="2549.000000pt" viewBox="0 0 1790.000000 2549.000000"
 preserveAspectRatio="xMidYMid meet">

<g transform="translate(0.000000,2549.000000) scale(0.100000,-0.100000)"
fill="#000000" stroke="none">
<path id="instruments" d="M7921 23364 c-8 -9 -10 -19 -5 -23 5 -3 15 -18 23 -33 8 -16 18 -28
23 -28 4 0 8 -5 8 -11 0 -15 71 -79 88 -79 7 0 20 -6 28 -14 16 -17 19 -66 4
-66 -5 0 -10 -6 -10 -13 0 -22 -23 -64 -41 -76 -14 -8 -22 -3 -45 27 -16 20
-35 42 -44 49 -18 15 -100 17 -100 3 0 -5 -9 -10 -20 -10 -37 0 -22 -56 28
-108 20 -20 34 -25 78 -25 46 0 54 -3 54 -18 0 -11 -4 -19 -10 -19 -5 0 -10
-9 -10 -19 0 -11 -4 -23 -10 -26 -5 -3 -10 -15 -10 -26 0 -10 -4 -19 -10 -19
-5 0 -10 -9 -10 -20 0 -11 -4 -20 -10 -20 -5 0 -10 -9 -10 -20 0 -11 -4 -20
-10 -20 -5 0 -10 -9 -10 -20 0 -11 -4 -20 -10 -20 -5 0 -10 -9 -10 -20 0 -11
-4 -20 -10 -20 -5 0 -10 -9 -10 -20 0 -11 -4 -20 -10 -20 -5 0 -10 -6 -10 -14
0 -18 -90 -190 -101 -194 -5 -2 -9 -12 -9 -23 0 -10 -4 -19 -10 -19 -5 0 -10
-9 -10 -20 0 -11 -4 -20 -10 -20 -5 0 -10 -9 -10 -20 0 -11 -4 -20 -10 -20 -5
0 -10 -7 -10 -15 0 -8 -4 -15 -10 -15 -5 0 -10 -9 -10 -20 0 -11 -4 -20 -10
-20 -5 0 -10 -9 -10 -20 0 -11 -4 -20 -10 -20 -5 0 -10 -8 -10 -18 0 -10 -9
-24 -20 -32 -11 -8 -20 -22 -20 -32 0 -10 -4 -18 -8 -18 -4 0 -21 -25 -37 -55
-17 -30 -33 -55 -37 -55 -5 0 -8 -6 -8 -13 0 -7 -9 -23 -20 -35 -11 -12 -20
-27 -20 -34 0 -8 -9 -20 -20 -28 -11 -8 -20 -22 -20 -32 0 -10 -4 -18 -10 -18
-5 0 -10 -7 -10 -15 0 -8 -4 -15 -10 -15 -5 0 -10 -7 -10 -15 0 -8 -4 -15 -10
-15 -5 0 -10 -7 -10 -15 0 -8 -4 -15 -8 -15 -5 0 -14 -11 -20 -25 -7 -14 -17
-31 -22 -38 -46 -54 -60 -73 -60 -82 0 -6 -9 -17 -20 -25 -11 -8 -20 -20 -20
-27 0 -7 -4 -13 -10 -13 -5 0 -10 -7 -10 -15 0 -8 -4 -15 -10 -15 -5 0 -10 -5
-10 -10 0 -6 -9 -20 -20 -32 -11 -12 -20 -28 -20 -35 0 -7 -6 -13 -14 -13 -8
0 -16 -6 -19 -12 -4 -10 -7 -10 -18 0 -17 15 -429 18 -429 2 0 -5 -20 -10 -45
-10 -25 0 -45 -4 -45 -10 0 -5 -9 -10 -19 -10 -29 0 -227 -111 -251 -140 -3
-3 -21 -17 -40 -30 -61 -42 -177 -166 -196 -209 -10 -23 -21 -41 -26 -41 -4 0
-8 -9 -8 -20 0 -11 -4 -20 -8 -20 -4 0 -13 -21 -20 -47 -8 -27 -18 -56 -23
-65 -5 -10 -9 -36 -9 -58 0 -22 -4 -40 -10 -40 -6 0 -10 -88 -10 -245 l0 -246
-25 -24 c-13 -14 -31 -25 -40 -25 -8 0 -15 -4 -15 -10 0 -5 -7 -10 -15 -10 -8
0 -15 -4 -15 -10 0 -5 -9 -10 -19 -10 -11 0 -21 -3 -23 -7 -1 -5 -32 -23 -68
-42 -36 -18 -70 -38 -77 -43 -24 -19 -126 -78 -134 -78 -5 0 -9 -4 -9 -10 0
-5 -7 -10 -15 -10 -8 0 -15 -4 -15 -10 0 -5 -6 -10 -13 -10 -7 0 -19 -9 -27
-20 -8 -11 -21 -20 -29 -20 -7 0 -21 -8 -30 -18 -9 -9 -34 -31 -56 -47 -59
-43 -99 -80 -193 -175 -89 -89 -122 -133 -122 -162 0 -10 -4 -18 -10 -18 -5 0
-10 -9 -10 -20 0 -11 -4 -20 -10 -20 -5 0 -10 -13 -10 -30 0 -16 -4 -30 -10
-30 -5 0 -10 -16 -10 -35 0 -19 -4 -35 -10 -35 -5 0 -10 -13 -10 -30 0 -16 -4
-30 -10 -30 -5 0 -10 -22 -10 -50 0 -27 -4 -50 -10 -50 -6 0 -10 -26 -10 -59
0 -33 -4 -63 -10 -66 -13 -8 -13 -242 0 -250 6 -3 10 -37 10 -76 0 -39 4 -69
10 -69 6 0 10 -20 10 -45 0 -25 5 -45 10 -45 6 0 10 -18 10 -40 0 -22 5 -40
10 -40 6 0 10 -18 10 -40 0 -22 5 -40 10 -40 6 0 10 -5 10 -10 0 -11 86 -146
108 -168 6 -7 12 -17 12 -22 0 -5 16 -25 35 -44 19 -20 35 -38 35 -41 0 -15
138 -155 153 -155 5 0 22 -13 37 -30 15 -16 33 -30 39 -30 7 0 21 -9 33 -20
12 -11 28 -20 35 -20 7 0 13 -3 13 -7 0 -5 29 -21 65 -38 36 -16 65 -33 65
-37 0 -5 9 -8 20 -8 11 0 20 -7 20 -15 0 -15 -63 -85 -76 -85 -4 0 -14 -8 -23
-17 -9 -10 -36 -34 -61 -53 -54 -41 -58 -45 -90 -71 -14 -11 -37 -28 -52 -37
-16 -9 -28 -20 -28 -24 0 -4 -7 -8 -15 -8 -8 0 -15 -4 -15 -10 0 -5 -8 -10
-18 -10 -10 0 -24 -9 -32 -20 -8 -11 -22 -20 -32 -20 -10 0 -18 -4 -18 -10 0
-5 -9 -10 -20 -10 -11 0 -20 -3 -20 -7 0 -5 -25 -21 -54 -37 -51 -28 -63 -46
-31 -46 7 0 48 20 89 45 42 25 81 45 86 45 6 0 10 5 10 10 0 6 7 10 15 10 8 0
15 5 15 10 0 6 7 10 15 10 8 0 15 5 15 10 0 6 7 10 15 10 8 0 15 5 15 10 0 6
7 10 15 10 8 0 15 5 15 10 0 6 5 10 11 10 7 0 19 8 28 18 9 11 27 24 39 31 25
13 60 41 98 79 13 12 26 22 29 22 4 0 28 23 55 50 40 42 55 50 84 50 20 0 36
-4 36 -10 0 -5 18 -10 40 -10 22 0 40 -4 40 -10 0 -5 24 -10 54 -10 30 0 58
-4 61 -10 4 -6 98 -10 251 -10 156 0 244 4 244 10 0 6 25 10 55 10 30 0 55 5
55 10 0 6 18 10 40 10 22 0 40 5 40 10 0 6 10 10 23 10 34 1 143 41 237 89 47
24 87 46 90 50 3 3 17 12 33 20 15 8 27 18 27 23 0 4 7 8 15 8 8 0 15 5 15 10
0 6 7 10 15 10 8 0 15 5 15 10 0 6 5 10 11 10 19 0 154 145 204 220 16 25 33
47 36 50 3 3 12 20 20 38 8 17 17 32 21 32 5 0 8 9 8 20 0 11 5 20 10 20 6 0
10 9 10 20 0 11 5 20 10 20 6 0 10 14 10 30 0 17 5 30 10 30 6 0 10 14 10 30
0 17 5 30 10 30 6 0 10 15 10 34 0 19 5 38 10 41 6 3 10 31 10 61 0 31 4 54
11 54 13 0 5 374 -11 480 -6 41 -13 101 -16 133 -3 31 -10 57 -15 57 -5 0 -9
23 -9 50 0 28 -4 50 -10 50 -5 0 -10 23 -10 50 0 28 -4 50 -10 50 -5 0 -10 24
-10 53 0 41 4 56 20 67 11 8 20 21 20 29 0 7 17 28 37 45 52 43 140 123 184
169 21 20 41 37 46 37 4 0 24 13 43 30 22 19 38 26 44 20 6 -6 18 -10 28 -10
10 0 18 -4 18 -10 0 -5 9 -10 20 -10 11 0 20 -4 20 -10 0 -5 8 -10 18 -10 10
0 24 -9 32 -20 8 -11 21 -20 30 -20 9 0 22 -9 30 -20 8 -11 18 -20 22 -20 8 0
28 -16 73 -55 13 -11 33 -27 46 -35 12 -8 41 -34 65 -57 24 -24 46 -43 48 -43
6 0 78 -65 162 -147 35 -35 66 -63 68 -63 6 0 95 -84 212 -197 40 -40 76 -73
79 -73 3 0 26 -19 50 -42 129 -122 155 -146 196 -178 24 -19 46 -38 47 -42 2
-4 8 -8 13 -8 5 0 29 -19 54 -42 24 -24 50 -48 57 -53 66 -52 108 -89 108 -97
0 -5 -18 -27 -40 -48 -22 -21 -40 -43 -40 -49 0 -6 -4 -11 -10 -11 -5 0 -10
-4 -10 -9 0 -5 -15 -25 -32 -44 -18 -19 -51 -56 -73 -82 -22 -26 -50 -58 -62
-71 -13 -13 -23 -27 -23 -32 0 -5 -13 -23 -30 -40 -16 -18 -30 -36 -30 -42 0
-5 -4 -10 -8 -10 -5 0 -15 -12 -23 -27 -8 -16 -24 -38 -36 -51 -13 -13 -23
-27 -23 -32 0 -5 -6 -15 -12 -22 -22 -22 -108 -157 -108 -168 0 -5 -4 -10 -10
-10 -5 0 -10 -6 -10 -13 0 -7 -9 -23 -20 -35 -11 -12 -20 -28 -20 -37 0 -8 -4
-15 -10 -15 -5 0 -10 -7 -10 -15 0 -8 -4 -15 -10 -15 -5 0 -10 -9 -10 -19 0
-11 -4 -21 -9 -23 -10 -3 -47 -67 -108 -188 -21 -41 -41 -76 -45 -78 -5 -2 -8
-12 -8 -23 0 -10 -4 -19 -10 -19 -5 0 -10 -9 -10 -20 0 -11 -4 -20 -10 -20 -5
0 -10 -9 -10 -20 0 -11 -4 -20 -10 -20 -5 0 -10 -13 -10 -30 0 -16 -4 -30 -10
-30 -5 0 -10 -9 -10 -20 0 -11 -4 -20 -10 -20 -5 0 -10 -9 -10 -19 0 -11 -4
-23 -10 -26 -5 -3 -10 -15 -10 -26 0 -10 -4 -19 -10 -19 -5 0 -10 -6 -10 -12
0 -13 -43 -126 -61 -160 -5 -10 -9 -27 -9 -38 0 -11 -4 -20 -10 -20 -5 0 -10
-13 -10 -30 0 -16 -4 -30 -10 -30 -5 0 -10 -13 -10 -30 0 -16 -4 -30 -10 -30
-5 0 -10 -13 -10 -30 0 -16 -4 -30 -10 -30 -5 0 -10 -16 -10 -35 0 -19 -4 -35
-10 -35 -5 0 -10 -13 -10 -30 0 -16 -4 -30 -10 -30 -5 0 -10 -18 -10 -40 0
-22 -4 -40 -9 -40 -5 0 -11 -17 -14 -37 -3 -21 -10 -56 -16 -78 -14 -57 -29
-127 -47 -225 -47 -254 -58 -393 -58 -690 1 -356 19 -525 89 -800 15 -58 29
-120 32 -137 3 -18 9 -33 14 -33 5 0 9 -13 9 -30 0 -16 5 -30 10 -30 6 0 10
-13 10 -30 0 -16 5 -30 10 -30 6 0 10 -11 10 -25 0 -14 5 -25 10 -25 6 0 10
-13 10 -30 0 -16 5 -30 10 -30 6 0 10 -7 10 -15 0 -8 4 -23 9 -33 64 -128 141
-293 141 -301 0 -6 5 -11 10 -11 6 0 10 -9 10 -20 0 -11 5 -20 10 -20 6 0 10
-7 10 -15 0 -8 5 -15 10 -15 6 0 10 -7 10 -15 0 -8 5 -15 10 -15 6 0 10 -9 10
-20 0 -11 5 -20 10 -20 6 0 10 -9 10 -20 0 -11 5 -20 10 -20 6 0 10 -5 10 -10
0 -11 73 -123 110 -170 11 -14 20 -29 20 -33 0 -4 9 -17 20 -29 11 -12 20 -28
20 -35 0 -7 5 -13 10 -13 6 0 10 -6 10 -13 0 -7 9 -19 20 -27 11 -8 20 -20 20
-28 0 -7 10 -24 23 -37 12 -13 27 -30 32 -37 6 -7 26 -33 45 -58 19 -25 38
-46 42 -48 5 -2 8 -8 8 -14 0 -5 14 -23 30 -38 16 -15 30 -33 30 -39 0 -6 5
-11 10 -11 6 0 10 -5 10 -10 0 -6 19 -30 43 -53 23 -24 56 -61 72 -82 37 -49
518 -530 564 -565 18 -14 57 -49 87 -77 29 -29 56 -53 58 -53 3 0 22 -15 42
-32 81 -73 93 -84 114 -98 13 -8 33 -25 46 -37 13 -13 27 -23 31 -23 5 0 15
-9 23 -20 8 -11 20 -20 27 -20 7 0 13 -4 13 -10 0 -5 5 -10 10 -10 6 0 21 -9
33 -20 65 -59 90 -80 98 -80 4 0 19 -11 33 -25 14 -14 30 -25 36 -25 5 0 10
-4 10 -10 0 -5 7 -10 15 -10 8 0 15 -4 15 -10 0 -5 6 -10 13 -10 7 0 19 -9 27
-20 8 -11 20 -20 28 -20 7 0 24 -11 38 -25 14 -14 29 -25 34 -25 5 0 15 -6 22
-13 7 -7 37 -28 66 -46 30 -19 59 -39 65 -45 7 -6 24 -17 40 -25 15 -8 27 -18
27 -23 0 -4 8 -8 18 -8 10 0 24 -9 32 -20 8 -11 22 -20 32 -20 10 0 18 -4 18
-10 0 -5 7 -10 15 -10 8 0 15 -4 15 -10 0 -5 5 -10 10 -10 9 0 95 -54 125 -78
6 -4 25 -15 43 -22 17 -8 32 -17 32 -21 0 -3 16 -11 35 -19 19 -8 35 -17 35
-22 0 -4 7 -8 15 -8 8 0 15 -4 15 -10 0 -5 9 -10 20 -10 11 0 20 -4 20 -10 0
-5 9 -10 19 -10 11 0 21 -3 23 -7 2 -5 26 -19 53 -33 28 -13 76 -39 107 -57
31 -18 63 -33 72 -33 9 0 16 -4 16 -10 0 -5 9 -10 20 -10 11 0 20 -4 20 -10 0
-5 9 -10 20 -10 11 0 20 -4 20 -10 0 -5 9 -10 20 -10 11 0 20 -4 20 -10 0 -5
11 -10 25 -10 14 0 25 -4 25 -10 0 -5 14 -10 30 -10 17 0 30 -4 30 -10 0 -5 9
-10 20 -10 11 0 20 -4 20 -10 0 -5 11 -10 24 -10 14 0 28 -4 31 -10 3 -5 17
-10 30 -10 13 0 26 -4 29 -9 3 -5 18 -11 33 -14 16 -3 61 -14 100 -26 60 -17
100 -21 223 -21 93 0 150 4 150 10 0 6 15 10 34 10 19 0 38 5 41 10 3 6 17 10
31 10 13 0 24 5 24 10 0 6 7 10 15 10 38 0 202 104 258 164 21 22 31 26 39 18
7 -7 33 -12 59 -12 26 0 49 -4 51 -9 5 -16 189 -16 198 -1 10 16 2 164 -11
204 -12 38 -12 176 0 176 6 0 11 14 13 31 3 29 8 33 53 45 63 17 366 18 432 3
62 -15 202 -57 228 -69 11 -4 35 -14 53 -22 17 -7 32 -16 32 -20 0 -5 9 -8 20
-8 11 0 20 -4 20 -10 0 -5 9 -10 20 -10 11 0 20 -4 20 -10 0 -5 9 -10 20 -10
11 0 20 -4 20 -10 0 -5 9 -10 19 -10 11 0 21 -4 23 -8 2 -5 26 -23 53 -42 28
-19 55 -38 60 -42 41 -33 56 -45 76 -58 12 -8 37 -30 55 -47 18 -18 37 -33 41
-33 5 0 15 -9 23 -20 8 -11 20 -20 27 -20 7 0 13 -4 13 -8 0 -5 11 -15 25 -22
14 -7 25 -17 25 -22 0 -5 13 -23 30 -41 16 -18 30 -35 30 -39 0 -4 11 -18 25
-32 14 -14 25 -31 25 -38 0 -8 9 -20 20 -28 11 -8 20 -20 20 -27 0 -7 5 -13
10 -13 6 0 10 -7 10 -15 0 -8 5 -15 10 -15 6 0 10 -7 10 -15 0 -8 5 -15 10
-15 6 0 10 -7 10 -15 0 -8 5 -15 10 -15 6 0 10 -7 10 -15 0 -8 5 -15 10 -15 6
0 10 -6 10 -13 0 -7 8 -22 18 -33 26 -28 132 -192 132 -204 0 -5 5 -10 10 -10
6 0 10 -7 10 -15 0 -8 5 -15 10 -15 6 0 10 -8 10 -18 0 -10 9 -24 20 -32 11
-8 20 -22 20 -32 0 -10 5 -18 10 -18 6 0 10 -4 10 -10 0 -5 20 -44 45 -86 25
-41 45 -80 45 -85 0 -5 5 -9 10 -9 6 0 10 -7 10 -15 0 -9 9 -25 20 -37 11 -12
20 -28 20 -35 0 -7 5 -13 10 -13 6 0 10 -11 10 -25 0 -14 5 -25 10 -25 6 0 10
-9 10 -20 0 -11 5 -20 10 -20 6 0 10 -9 10 -20 0 -11 5 -20 10 -20 6 0 10 -9
10 -19 0 -11 4 -21 8 -23 5 -1 30 -48 56 -103 27 -55 51 -102 55 -105 4 -3 14
-26 22 -53 7 -26 17 -47 21 -47 4 0 8 -9 8 -20 0 -11 5 -20 10 -20 6 0 10 -11
10 -25 0 -14 5 -25 10 -25 6 0 10 -11 10 -25 0 -14 5 -25 10 -25 6 0 10 -11
10 -25 0 -14 4 -25 8 -25 4 0 14 -21 21 -47 14 -46 19 -59 41 -103 6 -11 10
-29 10 -39 0 -11 4 -22 9 -26 5 -3 13 -20 17 -37 6 -31 10 -40 34 -88 6 -11
10 -31 10 -44 0 -14 5 -28 10 -31 6 -3 10 -19 10 -36 0 -16 5 -29 10 -29 6 0
10 -13 10 -30 0 -16 5 -30 10 -30 6 0 10 -18 10 -40 0 -22 5 -40 10 -40 6 0
10 -16 10 -35 0 -19 5 -35 10 -35 6 0 10 -18 10 -40 0 -22 5 -40 10 -40 6 0
10 -20 10 -44 0 -25 4 -47 9 -50 5 -3 11 -23 14 -43 3 -21 11 -60 16 -88 47
-231 97 -593 74 -537 -2 7 -22 12 -44 12 -21 0 -39 5 -39 10 0 6 -16 10 -35
10 -19 0 -35 5 -35 10 0 6 -18 10 -39 10 -22 0 -43 4 -46 10 -3 6 -24 10 -45
10 -21 0 -42 5 -45 10 -3 6 -26 10 -50 10 -24 0 -46 4 -49 9 -3 5 -29 11 -58
15 -29 3 -75 10 -103 14 -472 84 -1114 135 -1862 148 -184 3 -313 9 -313 15 0
5 -186 9 -473 9 -295 0 -477 4 -483 10 -6 6 -166 11 -399 14 -733 9 -1772 63
-1857 97 -39 16 -52 57 -44 137 7 62 12 118 36 392 6 58 12 152 16 210 3 58
10 118 16 133 8 21 8 31 -1 40 -6 6 -11 19 -11 29 0 10 -4 18 -10 18 -5 0 -10
7 -10 15 0 8 -4 15 -8 15 -5 0 -13 8 -18 19 -29 61 -202 235 -301 302 -26 18
-49 36 -51 41 -2 4 -12 8 -23 8 -10 0 -19 5 -19 10 0 6 -9 10 -20 10 -11 0
-20 5 -20 10 0 6 -9 10 -20 10 -11 0 -20 5 -20 10 0 6 -9 10 -20 10 -11 0 -28
4 -38 9 -34 17 -67 30 -97 36 -16 3 -46 10 -65 14 -117 29 -169 34 -355 33
-192 0 -281 -9 -545 -53 -30 -5 -76 -12 -103 -15 -26 -4 -50 -11 -53 -15 -3
-5 -23 -9 -44 -9 -21 0 -42 -4 -45 -10 -3 -5 -26 -10 -51 -10 -24 0 -44 -4
-44 -10 0 -5 -20 -10 -45 -10 -25 0 -45 -4 -45 -10 0 -5 -18 -10 -40 -10 -22
0 -40 -4 -40 -10 0 -5 -18 -10 -40 -10 -22 0 -40 -4 -40 -10 0 -5 -15 -10 -34
-10 -19 0 -37 -4 -40 -9 -3 -5 -23 -11 -43 -14 -114 -15 -200 -54 -225 -101
-12 -22 -29 -205 -59 -626 -4 -69 -11 -153 -15 -187 -4 -44 -3 -63 5 -63 6 0
11 -8 11 -18 0 -19 40 -54 75 -63 12 -4 213 0 446 8 592 20 1033 9 1334 -34
61 -8 130 -17 155 -20 25 -3 49 -9 54 -14 6 -5 27 -9 48 -9 21 0 38 -4 38 -10
0 -5 18 -10 40 -10 22 0 40 -4 40 -10 0 -5 16 -10 35 -10 19 0 35 -4 35 -10 0
-5 14 -10 30 -10 17 0 30 -4 30 -10 0 -5 9 -10 20 -10 11 0 20 -4 20 -9 0 -5
9 -13 20 -16 15 -5 20 -15 20 -41 0 -37 -12 -55 -45 -68 -27 -11 -133 -26
-220 -32 -38 -3 -79 -9 -90 -15 -26 -13 -772 -5 -880 10 -257 34 -392 60 -680
132 -22 6 -55 13 -72 16 -18 3 -33 9 -33 14 0 5 -18 9 -40 9 -22 0 -40 5 -40
10 0 6 -16 10 -35 10 -19 0 -35 5 -35 10 0 6 -18 10 -40 10 -22 0 -40 5 -40
10 0 6 -13 10 -29 10 -17 0 -33 5 -36 10 -3 5 -17 10 -31 10 -13 0 -32 4 -42
9 -36 19 -143 31 -263 30 -131 -1 -169 -11 -193 -54 -6 -11 -14 -22 -18 -25
-7 -6 -49 -216 -67 -338 -22 -146 -10 -249 32 -270 12 -6 67 -18 122 -27 55
-9 114 -20 130 -24 17 -5 42 -12 58 -15 15 -4 27 -12 27 -19 0 -13 65 -37 99
-37 11 0 23 -4 26 -10 3 -5 22 -10 41 -10 19 0 34 -4 34 -10 0 -5 10 -10 23
-10 12 0 29 -9 37 -20 8 -11 22 -20 32 -20 10 0 18 -4 18 -8 0 -5 12 -15 28
-22 31 -16 230 -214 250 -248 6 -12 18 -32 25 -44 6 -13 14 -25 17 -28 3 -3
22 -43 44 -90 21 -47 43 -93 47 -102 5 -10 9 -29 9 -43 0 -14 5 -25 10 -25 6
0 10 -18 10 -40 0 -22 5 -40 10 -40 6 0 10 -27 10 -60 0 -33 4 -60 10 -60 6 0
10 -76 10 -209 0 -129 -4 -212 -10 -216 -6 -3 -10 -37 -10 -76 0 -39 -4 -69
-10 -69 -5 0 -10 -22 -10 -50 0 -27 -4 -50 -10 -50 -5 0 -10 -18 -10 -39 0
-22 -5 -43 -10 -46 -6 -3 -10 -19 -10 -36 0 -43 27 -37 47 11 10 22 21 40 25
40 5 0 8 7 8 15 0 8 5 15 10 15 6 0 10 9 10 20 0 11 4 20 8 20 5 0 15 12 23
28 8 15 19 32 24 38 6 6 28 37 50 68 22 32 48 67 58 78 9 12 17 24 17 28 0 5
13 22 30 40 l29 31 28 -27 c17 -18 23 -29 15 -32 -7 -2 -12 -12 -12 -23 0 -10
-4 -19 -10 -19 -5 0 -10 -9 -10 -20 0 -11 -4 -20 -10 -20 -5 0 -10 -7 -10 -15
0 -8 -4 -15 -10 -15 -5 0 -10 -9 -10 -20 0 -11 -3 -20 -7 -20 -5 0 -19 -23
-32 -50 -14 -28 -28 -50 -32 -50 -4 0 -9 -8 -12 -17 -3 -10 -22 -45 -42 -78
-20 -33 -38 -68 -42 -77 -3 -10 -9 -18 -14 -18 -5 0 -9 -9 -9 -20 0 -11 -4
-20 -10 -20 -5 0 -10 -9 -10 -20 0 -11 -4 -20 -10 -20 -5 0 -10 -13 -10 -30 0
-16 -4 -30 -10 -30 -5 0 -10 -16 -10 -35 0 -19 -4 -35 -10 -35 -5 0 -10 -18
-10 -40 0 -22 -4 -40 -10 -40 -6 0 -10 -38 -10 -95 0 -57 4 -95 10 -95 6 0 10
-9 10 -20 0 -11 5 -20 10 -20 6 0 10 -8 10 -18 0 -10 9 -24 20 -32 11 -8 20
-22 20 -32 0 -10 5 -18 10 -18 6 0 10 -8 10 -18 0 -17 -24 -26 -165 -63 -22
-6 -54 -15 -71 -20 -17 -5 -44 -9 -62 -9 -17 0 -34 -4 -37 -10 -3 -5 -26 -10
-50 -10 -24 0 -47 -4 -50 -10 -3 -5 -28 -10 -56 -10 -27 0 -49 -4 -49 -10 0
-5 -25 -10 -55 -10 -30 0 -55 -4 -55 -10 0 -6 -27 -10 -60 -10 -33 0 -60 -4
-60 -10 0 -5 -22 -10 -48 -10 -26 0 -52 -4 -58 -9 -15 -14 -92 -23 -174 -21
-204 7 -929 4 -1030 -4 l-115 -9 -1 32 -1 31 298 0 c193 0 299 4 299 10 0 6 9
10 20 10 11 0 20 5 20 10 0 6 9 10 20 10 11 0 20 4 20 8 0 4 12 15 28 24 53
31 202 165 202 180 0 6 13 22 28 36 16 15 54 65 85 112 32 47 62 90 67 97 6 7
10 19 10 27 0 8 3 16 8 18 10 4 52 87 52 104 0 8 5 14 10 14 6 0 10 11 10 25
0 14 5 25 10 25 6 0 10 14 10 30 0 17 4 30 9 30 5 0 11 10 14 23 3 12 10 38
15 57 32 114 42 155 56 246 20 127 20 281 1 404 -18 115 -36 192 -47 205 -4 5
-8 22 -8 37 0 15 -4 28 -10 28 -5 0 -10 14 -10 30 0 17 -4 30 -10 30 -5 0 -10
9 -10 19 0 11 -4 23 -10 26 -6 3 -10 17 -10 31 0 13 -4 24 -10 24 -5 0 -10 7
-10 15 0 8 -4 15 -10 15 -5 0 -10 9 -10 20 0 11 -4 20 -10 20 -5 0 -10 9 -10
20 0 11 -4 20 -9 20 -5 0 -14 14 -21 30 -7 17 -15 30 -19 30 -4 0 -14 12 -23
28 -9 15 -33 45 -52 67 -20 22 -36 43 -36 47 0 10 -95 104 -155 153 -27 22
-59 50 -71 63 -13 12 -29 22 -36 22 -8 0 -20 9 -28 20 -8 11 -21 20 -29 20 -7
0 -21 8 -30 18 -17 18 -31 27 -131 80 -36 20 -66 39 -68 44 -2 4 -12 8 -23 8
-10 0 -19 5 -19 10 0 6 -9 10 -20 10 -11 0 -20 5 -20 10 0 6 88 10 245 10 178
0 251 3 267 13 40 23 68 56 68 82 0 14 5 25 10 25 6 0 10 20 10 45 0 25 4 45
9 45 9 0 14 31 27 145 3 28 10 54 15 60 5 5 9 45 10 90 1 104 20 210 41 231
14 14 34 17 108 15 50 -1 102 -6 116 -11 32 -12 134 -13 134 -1 0 11 -37 21
-130 32 -132 17 -203 21 -209 12 -3 -4 -15 -13 -26 -19 -35 -19 -53 -67 -59
-160 -3 -49 -10 -123 -16 -164 -5 -41 -12 -99 -16 -127 -3 -29 -10 -53 -15
-53 -5 0 -9 -20 -9 -45 0 -25 -4 -45 -10 -45 -5 0 -10 -16 -10 -35 0 -19 -4
-35 -10 -35 -5 0 -10 -7 -10 -16 0 -42 -16 -44 -307 -44 l-279 0 -22 45 c-12
25 -22 56 -22 68 0 13 -4 27 -9 32 -18 19 -23 124 -23 445 0 306 5 420 31 770
6 80 15 206 20 280 6 86 16 157 29 195 11 33 25 80 32 105 7 25 16 55 21 68 5
13 9 34 9 47 0 14 5 25 10 25 6 0 10 16 10 35 0 19 5 35 10 35 6 0 10 16 10
35 0 19 5 35 10 35 6 0 10 16 10 35 0 19 5 35 10 35 6 0 10 18 10 40 0 22 5
40 10 40 6 0 10 13 10 29 0 17 5 33 10 36 6 3 10 15 10 26 0 27 23 99 32 99
13 0 9 30 -4 44 -7 7 -22 16 -33 20 -13 5 -15 10 -7 13 6 3 12 11 12 19 0 19
4 18 53 -10 23 -12 58 -27 77 -31 55 -13 387 -11 470 3 41 6 100 16 130 21 30
5 75 14 100 21 76 20 113 29 170 41 30 6 63 15 72 20 10 5 31 9 48 9 16 0 30
5 30 10 0 6 14 10 30 10 17 0 30 5 30 10 0 6 7 10 16 10 29 0 64 51 64 94 0
28 -96 136 -121 136 -8 0 -21 9 -29 20 -8 11 -22 20 -32 20 -10 0 -18 5 -18
10 0 6 -9 10 -20 10 -11 0 -20 4 -20 8 0 5 -19 15 -42 22 -24 8 -45 17 -48 20
-10 12 -189 65 -275 81 -148 29 -218 33 -500 32 -275 0 -372 -6 -540 -31 -149
-23 -429 -93 -487 -123 -10 -5 -25 -9 -33 -9 -8 0 -15 -4 -15 -10 0 -5 -11
-10 -25 -10 -14 0 -25 -4 -25 -10 0 -5 -9 -10 -20 -10 -11 0 -20 -4 -20 -10 0
-5 -9 -10 -20 -10 -11 0 -20 -4 -20 -10 0 -5 -7 -10 -15 -10 -9 0 -27 -10 -40
-22 -13 -13 -32 -30 -42 -38 -34 -27 -63 -77 -63 -109 0 -32 9 -48 44 -79 10
-9 24 -23 31 -29 8 -7 18 -13 23 -13 5 0 22 -7 38 -14 109 -55 340 -84 722
-92 249 -5 262 -7 262 -25 0 -10 -4 -19 -10 -19 -5 0 -10 -9 -10 -20 0 -11 -4
-20 -10 -20 -5 0 -10 -13 -10 -29 0 -17 -4 -33 -10 -36 -5 -3 -10 -15 -10 -26
0 -10 -4 -27 -10 -37 -5 -9 -16 -37 -24 -62 -8 -25 -27 -76 -41 -115 -15 -38
-34 -92 -43 -120 -9 -27 -20 -51 -24 -53 -4 -2 -8 -17 -8 -33 0 -16 -4 -29
-10 -29 -6 0 -10 -28 -10 -65 0 -37 -4 -65 -10 -65 -6 0 -10 -77 -10 -210 0
-133 -4 -210 -10 -210 -6 0 -10 -48 -10 -125 0 -77 -4 -125 -10 -125 -6 0 -10
-30 -10 -70 0 -40 -4 -70 -10 -70 -5 0 -10 -10 -10 -23 0 -59 -50 -110 -87
-87 -24 15 -43 110 -43 214 0 41 -4 78 -10 81 -6 3 -10 50 -10 106 0 59 -4 99
-10 99 -6 0 -10 42 -10 105 0 63 -4 105 -10 105 -6 0 -10 27 -10 60 0 56 -3
63 -35 95 -19 19 -41 35 -50 35 -8 0 -15 5 -15 10 0 6 -11 10 -24 10 -13 0
-26 3 -28 8 -3 8 -74 34 -238 89 -146 48 -163 53 -191 53 -14 0 -29 4 -35 9
-16 15 -101 23 -314 27 -124 3 -213 1 -225 -5 -11 -5 -40 -12 -65 -16 -93 -12
-120 -17 -126 -26 -3 -5 -18 -9 -34 -9 -16 0 -32 -4 -35 -10 -3 -5 -17 -10
-30 -10 -13 0 -37 -5 -52 -11 -61 -25 -89 -37 -123 -49 -19 -7 -39 -16 -45
-20 -5 -4 -31 -13 -57 -21 -27 -7 -48 -17 -48 -21 0 -4 -9 -8 -20 -8 -11 0
-20 -4 -20 -10 0 -5 -11 -10 -25 -10 -14 0 -25 -4 -25 -10 0 -5 -9 -10 -20
-10 -11 0 -20 -4 -20 -10 0 -5 -7 -10 -15 -10 -9 0 -28 -12 -42 -26 -26 -26
-26 -27 -24 -177 1 -83 6 -156 11 -162 5 -6 11 -67 14 -135 3 -69 9 -188 15
-265 l10 -140 -35 -32 c-19 -17 -34 -38 -34 -47 0 -9 -4 -16 -10 -16 -17 0
-12 -57 6 -64 28 -11 41 -7 73 23 22 21 33 42 37 73 6 42 8 44 73 75 72 34
124 55 186 74 22 7 44 17 49 21 6 4 21 8 34 8 13 0 32 5 43 10 13 7 25 8 37 1
14 -9 11 -10 -15 -11 -18 0 -33 -4 -33 -10 0 -5 -7 -10 -16 -10 -18 0 -168
-71 -172 -82 -2 -4 -12 -8 -23 -8 -10 0 -19 -4 -19 -9 0 -5 -9 -12 -20 -16
-28 -9 -100 -80 -100 -99 0 -41 100 -72 280 -87 147 -13 620 -6 795 11 153 14
293 30 370 41 39 6 94 12 123 15 28 3 52 10 52 15 0 5 23 9 50 9 28 0 50 5 50
10 0 6 16 10 35 10 19 0 35 5 35 10 0 6 14 10 30 10 17 0 30 5 30 10 0 6 13
10 29 10 l28 0 7 -88 c8 -91 17 -192 37 -380 9 -86 9 -138 0 -225 -19 -184
-23 -207 -32 -207 -5 0 -9 -6 -9 -14 0 -8 -9 -18 -20 -21 -11 -3 -20 -11 -20
-16 0 -5 -9 -9 -20 -9 -11 0 -20 -4 -20 -10 0 -5 -9 -10 -20 -10 -11 0 -20 -4
-20 -10 0 -5 -9 -10 -20 -10 -11 0 -20 -4 -20 -10 0 -5 -7 -10 -15 -10 -8 0
-15 -4 -15 -10 0 -5 -7 -10 -15 -10 -9 0 -27 -11 -41 -25 -14 -14 -29 -25 -33
-25 -5 0 -22 -12 -39 -27 -16 -16 -51 -46 -77 -68 -82 -70 -105 -93 -105 -105
0 -7 -13 -24 -28 -38 -31 -30 -112 -145 -112 -161 0 -5 -4 -11 -8 -13 -12 -4
-82 -137 -82 -154 0 -8 -4 -14 -10 -14 -5 0 -10 -13 -10 -30 0 -16 -4 -30 -10
-30 -5 0 -10 -13 -10 -30 0 -16 -4 -30 -10 -30 -5 0 -10 -13 -10 -30 0 -16 -4
-30 -10 -30 -5 0 -10 -22 -10 -50 0 -27 -4 -50 -10 -50 -6 0 -10 -35 -10 -84
0 -47 -4 -88 -10 -91 -13 -8 -13 -112 0 -120 6 -3 10 -44 10 -91 0 -49 4 -84
10 -84 6 0 10 -22 10 -50 0 -27 5 -50 10 -50 6 0 10 -15 10 -34 0 -19 5 -38
10 -41 6 -3 10 -17 10 -30 0 -13 5 -27 10 -30 6 -3 10 -17 10 -31 0 -13 5 -24
10 -24 6 0 10 -6 10 -13 0 -19 48 -115 81 -164 16 -23 29 -46 29 -51 0 -5 13
-23 30 -40 16 -18 30 -38 30 -45 0 -7 9 -19 20 -27 11 -8 20 -18 20 -22 0 -4
8 -18 18 -30 30 -38 244 -248 253 -248 5 0 23 -13 40 -30 17 -16 58 -46 90
-67 32 -21 59 -41 59 -45 0 -5 -56 -8 -125 -8 -77 0 -125 -4 -125 -10 0 -6
-68 -10 -185 -10 -109 0 -185 -4 -185 -9 0 -6 -53 -12 -117 -15 -165 -7 -370
-30 -673 -75 -61 -9 -239 -41 -305 -56 -16 -3 -50 -10 -75 -15 -25 -5 -67 -14
-95 -20 -27 -6 -69 -14 -92 -17 -24 -3 -43 -9 -43 -14 0 -5 -18 -9 -40 -9 -22
0 -40 -4 -40 -10 0 -5 -20 -10 -45 -10 -25 0 -45 -4 -45 -10 0 -5 -18 -10 -40
-10 -22 0 -40 -4 -40 -10 0 -5 -13 -10 -29 -10 -17 0 -33 -4 -36 -10 -3 -5
-19 -10 -35 -10 -16 0 -32 -4 -35 -10 -3 -5 -22 -10 -41 -10 -19 0 -34 -4 -34
-10 0 -5 -10 -10 -21 -10 -22 0 -229 -64 -261 -81 -10 -5 -27 -9 -37 -9 -11 0
-23 -4 -26 -10 -3 -5 -17 -10 -30 -10 -13 0 -27 -4 -30 -10 -3 -5 -17 -10 -30
-10 -13 0 -27 -4 -30 -10 -3 -5 -17 -10 -31 -10 -13 0 -24 -4 -24 -10 0 -5
-16 -10 -35 -10 -19 0 -35 -4 -35 -10 0 -5 -9 -10 -20 -10 -11 0 -29 -4 -40
-10 -11 -5 -29 -14 -40 -20 -11 -5 -28 -10 -39 -10 -11 0 -21 -3 -23 -7 -1 -5
-30 -17 -63 -29 -112 -39 -160 -59 -163 -66 -2 -5 -14 -8 -27 -8 -13 0 -27 -5
-30 -10 -3 -6 -15 -10 -26 -10 -10 0 -19 -4 -19 -10 0 -5 -13 -10 -30 -10 -16
0 -30 -4 -30 -10 0 -5 -11 -10 -25 -10 -14 0 -25 -4 -25 -10 0 -5 -9 -10 -20
-10 -11 0 -20 -4 -20 -10 0 -5 -13 -10 -30 -10 -16 0 -30 -4 -30 -10 0 -5 -9
-10 -19 -10 -11 0 -23 -4 -26 -10 -3 -5 -13 -10 -22 -10 -9 0 -39 -11 -67 -24
-28 -12 -76 -34 -106 -47 -66 -28 -82 -38 -74 -50 7 -12 44 -11 44 1 0 6 6 10
14 10 12 0 147 58 188 80 10 6 25 10 33 10 8 0 15 5 15 10 0 6 14 10 30 10 17
0 30 5 30 10 0 6 9 10 20 10 11 0 20 5 20 10 0 6 14 10 30 10 17 0 30 5 30 10
0 6 11 10 25 10 14 0 25 5 25 10 0 6 9 10 19 10 11 0 23 5 26 10 3 6 17 10 31
10 13 0 24 4 24 8 0 4 21 14 48 21 26 8 54 18 62 22 30 14 66 28 135 54 39 14
78 30 87 36 10 5 27 9 37 9 11 0 23 5 26 10 3 6 17 10 30 10 13 0 27 5 30 10
3 6 19 10 36 10 16 0 29 5 29 10 0 6 11 10 25 10 14 0 25 5 25 10 0 6 14 10
30 10 17 0 30 5 30 10 0 6 14 10 30 10 17 0 30 5 30 10 0 6 10 10 21 10 12 0
60 13 108 29 47 16 113 36 146 46 33 9 85 26 116 36 30 10 65 19 77 19 11 0
24 4 27 10 3 5 24 10 46 10 21 0 39 5 39 10 0 6 16 10 35 10 19 0 35 5 35 10
0 6 20 10 45 10 25 0 45 5 45 10 0 6 20 10 45 10 25 0 45 5 45 10 0 6 18 10
39 10 22 0 43 4 46 10 3 5 25 10 49 10 23 0 46 4 52 9 5 5 27 11 49 15 45 6
81 12 305 51 220 38 413 61 583 71 59 3 107 10 107 15 0 5 70 9 155 9 97 0
155 4 155 10 0 6 90 10 250 10 l250 0 0 -29 c0 -27 -3 -29 -52 -36 -29 -4
-106 -10 -170 -14 -100 -7 -123 -12 -162 -35 -35 -20 -46 -33 -46 -51 0 -18 5
-25 20 -25 11 0 20 -4 20 -10 0 -6 33 -10 80 -10 47 0 80 4 80 10 0 6 20 10
44 10 25 0 48 5 51 10 3 6 17 10 31 10 13 0 24 5 24 10 0 6 7 10 16 10 8 0 22
6 29 13 32 27 41 34 65 41 24 7 298 21 634 33 154 5 374 -9 401 -25 5 -3 -27
-16 -71 -28 -59 -16 -92 -20 -127 -14 -55 8 -77 -1 -58 -23 7 -9 37 -18 74
-21 108 -9 162 -18 171 -27 6 -5 29 -9 53 -9 24 0 43 -4 43 -10 0 -5 23 -10
50 -10 28 0 50 -4 50 -10 0 -5 25 -10 55 -10 30 0 55 -4 55 -10 0 -5 17 -10
38 -11 20 0 46 -4 57 -8 20 -8 75 7 88 24 20 27 18 55 -7 79 -14 15 -30 26
-36 26 -6 0 -17 6 -25 13 -7 8 -46 24 -85 37 -39 13 -67 26 -63 30 4 5 28 10
53 13 25 3 70 11 100 17 30 6 81 14 113 17 31 2 57 9 57 14 0 5 23 9 50 9 28
0 50 5 50 10 0 6 25 10 55 10 30 0 55 5 55 10 0 6 23 10 50 10 28 0 50 5 50
10 0 6 18 10 40 10 22 0 40 4 40 9 0 5 17 11 38 14 45 7 102 20 162 39 40 13
51 13 105 -3 78 -22 172 -39 219 -39 20 0 46 -5 56 -10 13 -7 21 -7 25 0 3 5
17 10 31 10 26 0 54 20 54 39 0 6 5 11 10 11 6 0 10 25 10 55 0 46 -4 60 -25
80 -13 14 -31 25 -40 25 -8 0 -15 5 -15 10 0 6 -13 10 -30 10 -16 0 -30 -4
-30 -10 0 -5 -11 -10 -24 -10 -14 0 -28 -4 -31 -10 -3 -5 -15 -10 -26 -10 -10
0 -19 -4 -19 -10 0 -5 -11 -10 -25 -10 -14 0 -25 -4 -25 -10 0 -5 -11 -10 -24
-10 -14 0 -28 -5 -31 -10 -3 -6 -15 -10 -26 -10 -10 0 -19 -4 -19 -10 0 -5 -9
-10 -19 -10 -11 0 -22 -4 -26 -10 -9 -15 -48 8 -70 41 -11 16 -23 29 -27 29
-5 0 -8 8 -8 18 0 10 -9 24 -20 32 -12 8 -20 26 -20 42 0 15 -5 28 -11 28 -11
0 -10 16 7 143 3 26 10 47 15 47 5 0 9 16 9 35 0 19 5 35 10 35 6 0 10 18 10
40 0 22 5 40 10 40 6 0 10 9 10 20 0 11 3 20 8 20 4 0 18 21 32 48 13 26 44
77 67 115 24 37 43 72 43 77 0 6 5 10 10 10 6 0 10 9 10 20 0 11 5 20 10 20 6
0 10 9 10 20 0 11 5 20 10 20 6 0 10 7 10 15 0 8 5 15 10 15 6 0 10 9 10 20 0
11 5 20 10 20 6 0 10 7 10 15 0 8 4 15 9 15 5 0 12 11 15 25 9 36 19 33 80
-20 26 -23 140 -65 177 -65 47 0 159 80 159 114 0 9 5 16 10 16 15 0 13 156
-3 183 -6 12 -20 29 -29 38 -10 9 -18 22 -18 28 0 17 -26 41 -44 41 -9 0 -16
5 -16 10 0 6 -11 10 -25 10 -14 0 -25 4 -25 9 0 8 -23 14 -112 27 -26 4 -50
19 -77 45 -54 54 -109 49 -177 -15 -12 -11 -32 -29 -45 -38 -18 -14 -23 -28
-23 -65 0 -51 23 -143 36 -143 4 0 8 -5 8 -11 0 -6 6 -17 14 -25 14 -14 11
-54 -4 -54 -5 0 -11 -8 -14 -17 -3 -10 -16 -29 -29 -43 -13 -14 -32 -40 -42
-58 -11 -17 -23 -32 -27 -32 -4 0 -8 -7 -8 -15 0 -8 -4 -15 -10 -15 -5 0 -10
-6 -10 -13 0 -7 -9 -19 -20 -27 -11 -8 -20 -20 -20 -28 0 -13 -23 -42 -34 -42
-3 0 -6 9 -6 20 0 11 5 20 10 20 6 0 10 25 10 55 0 30 5 55 10 55 6 0 10 40
10 99 0 56 4 103 10 106 13 8 13 205 0 205 -6 0 -10 38 -10 95 0 57 -4 95 -10
95 -5 0 -10 20 -10 45 0 25 -4 45 -10 45 -5 0 -10 15 -10 34 0 19 -4 38 -10
41 -5 3 -10 15 -10 26 0 22 1 19 -65 151 -27 54 -53 98 -57 98 -4 0 -8 6 -8
14 0 7 -14 27 -30 44 -17 18 -30 35 -30 40 0 4 -9 14 -20 22 -11 8 -20 19 -20
24 0 5 -10 17 -22 27 -13 11 -36 30 -53 44 -16 13 -43 36 -60 50 -16 14 -35
25 -40 25 -6 0 -17 9 -25 20 -8 11 -22 20 -32 20 -10 0 -18 5 -18 10 0 6 -9
10 -20 10 -11 0 -20 5 -20 10 0 6 -9 10 -20 10 -11 0 -20 5 -20 10 0 6 -11 10
-24 10 -13 0 -26 4 -28 8 -4 9 -216 78 -268 86 -19 4 -55 9 -80 12 -81 9 -120
25 -127 52 -8 35 3 266 17 332 6 30 16 80 22 110 15 78 26 104 56 131 26 23
31 24 192 21 92 -1 168 -6 174 -12 6 -6 25 -10 43 -10 18 0 33 -4 33 -10 0 -5
16 -10 35 -10 19 0 35 -4 35 -10 0 -5 16 -10 35 -10 19 0 35 -4 35 -10 0 -5
15 -10 34 -10 19 0 37 -4 40 -9 3 -5 22 -12 41 -15 19 -3 51 -9 70 -12 19 -3
35 -10 35 -14 0 -4 17 -10 38 -13 20 -2 64 -12 97 -21 33 -10 83 -22 110 -28
28 -5 68 -14 90 -20 73 -17 139 -29 190 -34 28 -3 59 -9 70 -14 22 -10 98 -18
248 -26 53 -3 97 -10 97 -15 0 -5 121 -9 300 -9 193 0 300 4 300 10 0 6 42 10
105 10 63 0 105 4 105 10 0 6 28 10 64 10 36 0 68 5 71 10 3 6 24 10 46 10 29
0 47 7 64 25 14 13 25 29 25 35 0 5 5 10 10 10 6 0 10 14 10 30 0 17 -4 30
-10 30 -5 0 -10 7 -10 16 0 20 -24 44 -44 44 -9 0 -16 5 -16 10 0 6 -13 10
-29 10 -17 0 -33 5 -36 10 -3 6 -19 10 -36 10 -16 0 -29 4 -29 9 0 5 -15 11
-32 14 -18 3 -53 11 -78 17 -117 29 -338 64 -500 79 -204 19 -573 23 -1077 11
-271 -6 -503 -8 -517 -4 -13 3 -29 17 -35 30 -13 30 -14 129 -2 244 5 47 17
191 26 320 16 243 27 316 49 338 7 7 37 20 67 28 30 9 70 20 89 25 19 6 52 15
73 20 20 5 56 14 80 20 23 6 57 13 75 16 18 3 35 9 38 14 3 5 23 9 45 9 21 0
39 5 39 10 0 6 23 10 50 10 28 0 50 5 50 10 0 6 20 10 45 10 25 0 45 5 45 10
0 6 23 10 50 10 28 0 50 5 50 10 0 6 19 10 43 10 24 0 47 4 53 9 5 5 34 11 64
14 30 3 102 11 160 18 135 18 500 18 600 1 41 -7 90 -15 108 -18 17 -4 32 -10
32 -15 0 -5 14 -9 30 -9 17 0 30 -4 30 -10 0 -5 11 -10 25 -10 14 0 25 -4 25
-10 0 -5 14 -10 30 -10 17 0 30 -4 30 -10 0 -5 8 -10 18 -10 10 0 24 -9 32
-20 8 -11 22 -20 31 -20 10 0 19 -4 21 -8 2 -5 23 -22 48 -39 68 -47 146 -118
190 -173 14 -17 34 -41 45 -53 11 -12 33 -40 49 -62 17 -22 34 -43 39 -46 9
-7 6 -73 -12 -269 -5 -58 -14 -157 -20 -220 -6 -63 -15 -160 -21 -215 -17
-177 -15 -197 25 -237 40 -39 30 -37 315 -59 373 -28 773 -47 1158 -55 170 -3
292 -9 292 -15 0 -5 182 -9 460 -9 300 0 460 -3 460 -10 0 -7 150 -10 429 -10
276 0 432 -4 436 -10 4 -6 101 -10 259 -10 141 0 256 -4 262 -9 5 -5 88 -12
184 -15 338 -10 701 -45 1100 -107 36 -6 88 -12 115 -15 28 -3 54 -10 59 -15
6 -5 32 -9 58 -9 26 0 48 -4 48 -10 0 -5 20 -10 45 -10 25 0 45 -4 45 -10 0
-5 23 -10 50 -10 28 0 50 -4 50 -10 0 -5 14 -10 30 -10 17 0 30 -4 30 -10 0
-5 18 -10 40 -10 22 0 40 -4 40 -10 0 -5 13 -10 30 -10 33 0 34 -3 45 -100 8
-67 23 -252 31 -377 3 -51 10 -93 15 -93 5 0 9 -27 9 -60 0 -33 4 -60 10 -60
6 0 10 -16 10 -35 0 -19 5 -35 10 -35 6 0 10 -7 10 -16 0 -14 34 -72 51 -84 3
-3 12 -16 19 -29 13 -25 28 -43 98 -116 23 -24 42 -47 42 -50 0 -7 148 -155
155 -155 3 0 17 -11 31 -25 14 -14 29 -25 34 -25 5 0 15 -6 22 -14 35 -34 163
-86 216 -86 50 0 128 44 162 93 16 23 33 47 37 52 5 6 19 41 31 79 22 64 23
75 12 150 -17 118 -39 215 -61 265 -10 24 -19 50 -19 57 0 8 -4 14 -10 14 -5
0 -10 9 -10 20 0 11 -4 20 -10 20 -5 0 -10 9 -10 20 0 11 -4 20 -10 20 -5 0
-10 7 -10 15 0 8 -4 15 -10 15 -5 0 -10 7 -10 15 0 8 -4 15 -10 15 -5 0 -10 5
-10 11 0 15 -214 229 -228 229 -7 0 -26 14 -44 30 -17 17 -37 30 -44 30 -8 0
-14 5 -14 10 0 6 -9 10 -20 10 -11 0 -20 5 -20 10 0 6 -7 10 -15 10 -8 0 -15
5 -15 10 0 6 -9 10 -20 10 -11 0 -20 5 -20 10 0 6 -9 10 -20 10 -11 0 -20 5
-20 10 0 6 -9 10 -20 10 -11 0 -20 5 -20 10 0 6 -6 10 -13 10 -7 0 -35 11 -63
24 -27 13 -80 34 -119 47 -38 13 -75 29 -82 35 -6 6 -13 37 -16 70 -13 136
-52 374 -88 534 -6 25 -13 63 -16 85 -3 22 -9 44 -14 50 -5 5 -9 24 -9 42 0
18 -4 33 -10 33 -5 0 -10 18 -10 40 0 22 -4 40 -10 40 -5 0 -10 18 -10 40 0
22 -4 40 -10 40 -5 0 -10 16 -10 35 0 19 -4 35 -10 35 -5 0 -10 13 -10 29 0
17 -4 33 -10 36 -5 3 -10 17 -10 30 0 13 -4 27 -10 30 -5 3 -10 19 -10 34 0
15 -4 31 -9 36 -9 11 -70 175 -78 213 -3 12 -9 25 -14 28 -5 3 -9 14 -9 25 0
10 -4 19 -10 19 -5 0 -10 14 -10 30 0 17 -4 30 -10 30 -5 0 -10 9 -10 20 0 11
-4 20 -10 20 -5 0 -10 11 -10 25 0 14 -4 25 -10 25 -5 0 -10 11 -10 25 0 14
-4 25 -10 25 -5 0 -10 11 -10 25 0 14 -4 25 -10 25 -5 0 -10 9 -10 20 0 11 -4
20 -10 20 -5 0 -10 7 -10 15 0 8 -25 63 -55 122 -30 59 -55 114 -55 120 0 7
-4 13 -10 13 -5 0 -10 9 -10 20 0 11 -4 20 -10 20 -5 0 -10 9 -10 20 0 11 -4
20 -10 20 -5 0 -10 7 -10 15 0 8 -4 15 -10 15 -5 0 -10 9 -10 20 0 11 -4 20
-10 20 -5 0 -10 9 -10 20 0 11 -4 20 -10 20 -5 0 -10 9 -10 20 0 11 -3 20 -8
20 -4 0 -25 34 -47 75 -21 41 -43 75 -47 75 -4 0 -8 6 -8 13 0 7 -9 23 -20 35
-11 12 -20 28 -20 37 0 8 -4 15 -10 15 -5 0 -10 8 -10 18 0 10 -9 24 -20 32
-11 8 -20 22 -20 32 0 10 -4 18 -10 18 -5 0 -10 7 -10 15 0 8 -4 15 -10 15 -5
0 -10 6 -10 13 0 7 -8 22 -17 33 -10 10 -27 36 -38 57 -11 20 -23 37 -27 37
-3 0 -9 8 -13 19 -3 10 -16 31 -29 46 -14 16 -30 40 -38 54 -7 14 -21 33 -30
42 -10 9 -18 23 -18 30 0 8 -9 21 -20 29 -11 8 -20 19 -20 25 0 6 -8 20 -18
31 -9 10 -34 43 -56 72 -21 28 -42 52 -47 52 -5 0 -9 5 -9 10 0 14 -46 60 -59
60 -5 0 -11 3 -13 8 -2 4 -19 20 -38 35 -73 59 -102 83 -132 110 -16 15 -33
27 -38 27 -4 0 -20 11 -36 25 -16 14 -35 25 -41 25 -7 0 -13 5 -13 10 0 6 -7
10 -15 10 -8 0 -15 5 -15 10 0 6 -9 10 -20 10 -11 0 -20 4 -20 9 0 5 -13 14
-30 21 -16 7 -30 16 -30 21 0 5 -7 9 -15 9 -8 0 -23 4 -33 10 -66 38 -230 100
-262 100 -14 0 -30 4 -35 9 -23 22 -305 32 -452 16 -35 -4 -63 -5 -63 -3 0 2
5 19 11 38 25 83 68 250 76 298 3 17 9 32 14 32 5 0 9 15 9 34 0 19 4 38 10
41 5 3 10 21 10 40 0 18 6 36 13 38 10 4 10 6 0 6 -7 1 -13 12 -13 26 0 14 -4
25 -10 25 -23 0 -8 18 20 24 27 5 30 9 30 46 0 22 5 40 10 40 6 0 10 9 10 20
0 11 -4 20 -10 20 -18 0 -11 35 10 50 15 11 20 26 20 62 0 26 5 50 10 53 6 3
10 15 10 26 0 10 4 27 9 37 5 9 17 58 26 107 10 50 30 128 45 175 30 91 43
191 29 228 -7 17 -5 24 6 28 8 4 15 15 15 25 0 10 5 19 10 19 15 0 12 49 -4
66 -21 20 -62 34 -101 34 -23 0 -38 6 -44 19 -13 24 8 34 55 25 47 -9 104 3
104 22 0 20 24 44 44 44 9 0 16 5 16 10 0 6 7 10 15 10 22 0 60 41 86 90 25
48 37 126 45 307 7 145 6 147 -53 174 -18 7 -33 17 -33 21 0 5 -9 8 -20 8 -11
0 -20 4 -20 9 0 12 -83 22 -134 15 -45 -7 -96 -41 -96 -65 0 -8 -9 -21 -20
-29 -11 -8 -20 -20 -20 -28 0 -7 -9 -22 -20 -34 -11 -12 -20 -28 -20 -35 0 -7
-4 -13 -8 -13 -5 0 -14 -16 -22 -35 -8 -19 -17 -35 -22 -35 -4 0 -8 -9 -8 -20
0 -11 -4 -20 -8 -20 -5 0 -15 -24 -22 -53 -9 -40 -10 -59 -1 -75 6 -11 11 -32
11 -46 0 -14 5 -28 10 -31 6 -3 10 -19 10 -36 0 -16 5 -29 10 -29 6 0 10 -9
10 -20 0 -11 -4 -20 -10 -20 -5 0 -10 -18 -10 -39 0 -22 -4 -42 -9 -45 -5 -3
-11 -20 -14 -38 -6 -36 -13 -66 -53 -213 -14 -55 -29 -115 -31 -132 -3 -18 -9
-33 -14 -33 -5 0 -9 -15 -9 -34 0 -19 -4 -38 -10 -41 -5 -3 -10 -22 -10 -41 0
-19 -4 -34 -10 -34 -5 0 -10 -18 -10 -40 0 -22 -4 -40 -10 -40 -5 0 -10 -18
-10 -40 0 -22 -4 -40 -10 -40 -5 0 -10 -16 -10 -35 0 -19 -4 -35 -10 -35 -5 0
-10 -18 -10 -40 0 -22 -4 -40 -10 -40 -5 0 -10 -18 -10 -40 0 -22 -4 -40 -9
-40 -5 0 -11 -17 -14 -37 -3 -21 -22 -101 -42 -178 -50 -188 -56 -214 -62
-258 -3 -20 -9 -40 -14 -43 -5 -3 -9 -25 -9 -50 0 -24 -4 -44 -10 -44 -6 0
-10 -27 -10 -60 0 -33 -4 -60 -10 -60 -6 0 -10 -32 -10 -75 0 -41 -4 -75 -8
-75 -5 0 -15 -12 -23 -27 -8 -16 -21 -35 -29 -43 -8 -8 -33 -41 -54 -72 -45
-66 -44 -98 4 -120 16 -7 30 -16 30 -20 0 -5 9 -8 20 -8 30 0 25 -33 -7 -52
-16 -9 -41 -28 -57 -41 -16 -14 -47 -33 -68 -43 -21 -9 -38 -21 -38 -26 0 -4
-9 -8 -20 -8 -11 0 -20 -4 -20 -10 0 -5 -11 -10 -24 -10 -14 0 -28 -4 -31 -10
-3 -5 -17 -10 -30 -10 -13 0 -27 -4 -30 -10 -3 -5 -26 -10 -51 -10 -24 0 -44
-4 -44 -10 0 -15 -223 -13 -238 2 -10 10 -43 18 -140 35 -18 3 -35 9 -38 14
-3 5 -16 9 -29 9 -13 0 -27 5 -30 10 -3 6 -15 10 -26 10 -10 0 -19 5 -19 10 0
6 -13 10 -30 10 -16 0 -30 5 -30 10 0 6 -9 10 -20 10 -11 0 -20 5 -20 10 0 6
-13 10 -30 10 -16 0 -30 5 -30 10 0 6 -9 10 -20 10 -11 0 -20 5 -20 10 0 6 -7
10 -15 10 -9 0 -26 6 -38 14 -50 31 -261 136 -273 136 -8 0 -14 5 -14 10 0 6
-8 10 -18 10 -10 0 -24 9 -32 20 -8 11 -22 20 -32 20 -10 0 -18 5 -18 10 0 6
-9 10 -20 10 -11 0 -20 5 -20 10 0 6 -4 10 -9 10 -9 0 -118 63 -138 80 -7 5
-24 15 -38 22 -14 6 -25 14 -25 18 0 3 -16 12 -35 20 -19 8 -35 17 -35 22 0 4
-7 8 -15 8 -8 0 -15 5 -15 10 0 6 -7 10 -15 10 -8 0 -15 5 -15 10 0 6 -7 10
-15 10 -9 0 -26 9 -38 20 -12 11 -60 46 -107 77 -47 31 -86 60 -88 65 -2 4 -9
8 -16 8 -7 0 -27 14 -44 30 -18 17 -38 30 -45 30 -7 0 -19 9 -27 20 -8 11 -19
20 -25 20 -6 0 -20 8 -31 18 -10 9 -37 30 -59 46 -22 17 -47 38 -56 48 -9 10
-22 18 -29 18 -6 0 -25 14 -40 30 -15 17 -33 30 -39 30 -6 0 -11 4 -11 8 0 5
-12 15 -27 23 -16 8 -42 28 -60 44 -17 17 -38 35 -45 40 -14 10 -83 69 -131
111 -15 13 -30 24 -32 24 -3 0 -30 24 -60 53 -29 28 -79 75 -111 102 -64 56
-444 432 -444 439 0 5 -47 56 -142 158 -21 22 -38 44 -38 48 0 5 -16 25 -35
44 -19 20 -35 39 -35 43 0 5 -9 15 -20 23 -11 8 -20 19 -20 25 0 10 -16 30
-87 110 -10 11 -24 32 -32 48 -8 15 -18 27 -23 27 -4 0 -8 7 -8 15 0 8 -4 15
-10 15 -5 0 -10 7 -10 15 0 8 -4 15 -10 15 -5 0 -10 6 -10 13 0 7 -9 19 -20
27 -11 8 -20 21 -20 30 0 9 -9 22 -20 30 -11 8 -20 22 -20 31 0 10 -3 19 -7
21 -9 3 -71 98 -92 141 -8 15 -18 27 -23 27 -4 0 -8 9 -8 20 0 11 -4 20 -10
20 -5 0 -10 9 -10 20 0 11 -3 20 -7 20 -5 0 -19 25 -33 55 -14 30 -28 55 -32
55 -5 0 -8 9 -8 20 0 11 -4 20 -10 20 -5 0 -10 7 -10 16 0 9 -16 45 -35 81
-19 36 -35 71 -35 79 0 8 -4 14 -8 14 -5 0 -15 23 -22 50 -7 28 -17 50 -22 50
-4 0 -8 14 -8 30 0 17 -4 30 -10 30 -5 0 -10 11 -10 25 0 14 -4 25 -10 25 -5
0 -10 14 -10 30 0 17 -4 30 -10 30 -5 0 -10 13 -10 29 0 17 -4 33 -10 36 -5 3
-10 22 -10 41 0 19 -4 34 -10 34 -5 0 -10 15 -10 34 0 19 -4 37 -9 40 -5 3
-11 23 -14 43 -3 21 -10 61 -15 88 -47 250 -54 338 -54 640 0 251 4 325 21
450 24 169 35 236 51 315 6 30 14 74 17 98 3 23 9 42 14 42 5 0 9 18 9 39 0
22 5 43 10 46 6 3 10 24 10 46 0 21 5 39 10 39 6 0 10 14 10 30 0 17 5 30 10
30 6 0 10 16 10 35 0 19 5 35 10 35 6 0 10 15 10 33 0 19 3 37 7 40 3 4 18 42
33 84 56 160 75 208 83 211 4 2 7 10 7 18 0 7 9 29 20 49 11 20 20 44 20 55 0
11 5 20 10 20 6 0 10 11 10 25 0 14 5 25 10 25 6 0 10 9 10 20 0 11 5 20 10
20 6 0 10 9 10 20 0 11 5 20 10 20 6 0 10 9 10 20 0 11 5 20 10 20 6 0 10 6
10 14 0 8 16 45 36 83 20 37 50 95 67 128 18 33 35 62 39 63 5 2 8 12 8 23 0
10 5 19 10 19 6 0 10 7 10 15 0 8 5 15 10 15 6 0 10 9 10 20 0 11 5 20 10 20
6 0 10 8 10 18 0 10 9 24 20 32 11 8 20 22 20 32 0 10 4 18 8 18 5 0 15 12 23
28 8 15 16 29 19 32 3 3 23 32 45 65 22 33 46 66 52 73 7 7 13 17 13 22 0 5
11 20 25 34 14 14 25 31 25 38 0 8 9 20 20 28 11 8 20 19 20 24 0 5 8 16 18
25 10 9 23 23 28 32 13 24 74 98 112 136 17 18 32 35 32 37 0 5 53 65 123 138
l38 40 18 -21 c10 -11 24 -21 30 -21 7 0 23 -11 37 -25 14 -14 29 -25 34 -25
5 0 15 -6 22 -14 21 -20 156 -106 168 -106 6 0 10 -4 10 -9 0 -5 14 -14 30
-21 17 -7 30 -16 30 -21 0 -5 11 -9 25 -9 14 0 25 -4 25 -10 0 -5 9 -10 20
-10 11 0 20 -4 20 -10 0 -5 8 -10 18 -10 10 0 22 -4 28 -9 19 -19 200 -71 284
-83 67 -9 105 -9 161 1 69 11 209 67 209 84 0 4 7 7 15 7 8 0 15 5 15 10 0 6
7 10 15 10 8 0 15 5 15 10 0 6 7 10 15 10 8 0 15 4 15 8 0 5 12 15 28 23 41
21 144 130 164 174 6 14 14 25 18 25 6 0 23 36 51 108 35 91 -19 254 -118 358
-28 30 -55 54 -60 54 -5 0 -19 9 -31 21 -13 11 -48 34 -80 51 -104 54 -139 63
-252 62 -92 -1 -116 -5 -195 -33 -49 -18 -100 -35 -112 -38 -13 -3 -23 -9 -23
-14 0 -5 -9 -9 -20 -9 -11 0 -20 -4 -20 -10 0 -5 -9 -10 -20 -10 -11 0 -20 -4
-20 -10 0 -5 -9 -10 -20 -10 -11 0 -20 -4 -20 -10 0 -5 -7 -10 -15 -10 -8 0
-15 -4 -15 -10 0 -5 -7 -10 -15 -10 -8 0 -15 -3 -15 -8 0 -4 -15 -14 -32 -21
-18 -8 -43 -24 -55 -35 -30 -29 -45 -41 -64 -52 -26 -15 -90 -66 -125 -101
-18 -18 -38 -33 -44 -33 -5 0 -43 -34 -83 -75 l-73 -75 -45 37 c-24 21 -50 43
-57 50 -7 7 -18 13 -22 13 -5 0 -34 25 -65 55 -30 30 -57 55 -60 55 -7 0 -57
45 -143 128 -35 34 -68 62 -73 62 -4 0 -32 24 -61 53 -30 28 -66 61 -81 72
-15 11 -27 23 -27 28 0 10 -67 77 -77 77 -5 0 -15 9 -23 20 -8 11 -17 20 -21
20 -3 0 -29 21 -57 48 -27 26 -60 57 -73 69 -13 12 -36 34 -50 50 -30 32 -66
63 -75 63 -3 0 -19 14 -34 30 -15 17 -31 30 -34 30 -4 0 -26 19 -51 43 -24 23
-50 47 -57 52 -7 6 -33 26 -58 45 -25 19 -46 38 -48 43 -2 4 -10 7 -18 7 -8 0
-14 5 -14 10 0 6 -7 10 -15 10 -8 0 -15 5 -15 10 0 6 -7 10 -15 10 -8 0 -15 4
-15 9 0 5 -13 14 -30 21 -16 7 -30 16 -30 21 0 4 -10 9 -22 11 -19 2 -23 9
-21 32 1 16 6 32 10 35 13 10 33 50 33 66 0 8 5 15 10 15 6 0 10 9 10 20 0 11
5 20 10 20 6 0 10 14 10 30 0 17 5 30 10 30 6 0 10 14 10 30 0 17 5 30 10 30
6 0 10 20 10 45 0 25 5 45 10 45 6 0 10 55 10 145 0 90 -4 145 -10 145 -5 0
-10 18 -10 40 0 22 -4 40 -10 40 -5 0 -10 14 -10 30 0 17 -4 30 -10 30 -5 0
-10 9 -10 20 0 11 -4 20 -10 20 -5 0 -10 11 -10 25 0 14 -4 25 -9 25 -5 0 -14
14 -21 30 -7 17 -16 30 -21 30 -5 0 -9 5 -9 11 0 12 -46 80 -84 124 -14 17
-26 34 -26 38 0 5 -13 22 -30 37 -21 19 -30 37 -30 59 0 17 5 31 10 31 6 0 10
14 10 30 0 17 5 30 10 30 6 0 10 14 10 30 0 17 5 30 10 30 6 0 10 9 10 20 0
11 5 20 10 20 6 0 10 7 10 16 0 8 16 49 35 91 19 42 35 82 35 89 0 8 5 14 10
14 6 0 10 9 10 20 0 11 5 20 10 20 6 0 10 9 10 20 0 11 5 20 10 20 6 0 10 11
10 25 0 14 5 25 10 25 6 0 10 9 10 20 0 11 5 20 10 20 6 0 10 9 10 20 0 11 5
20 10 20 6 0 10 14 10 30 0 17 5 30 10 30 6 0 10 9 10 20 0 11 3 20 8 20 8 0
32 49 32 67 0 7 5 13 10 13 6 0 10 5 10 11 0 7 20 52 45 101 25 49 45 96 45
104 0 8 5 14 10 14 6 0 10 9 10 20 0 11 5 20 10 20 6 0 10 9 10 20 0 11 5 20
10 20 6 0 10 11 10 25 0 14 5 25 10 25 6 0 10 9 10 20 0 11 5 20 10 20 6 0 10
9 10 20 0 11 5 20 10 20 6 0 10 6 10 14 0 7 13 40 29 72 16 32 37 78 47 101
17 39 22 43 57 43 20 0 37 -4 37 -10 0 -5 14 -10 30 -10 17 0 30 -4 30 -10 0
-5 9 -10 20 -10 11 0 20 -4 20 -10 0 -5 14 -10 30 -10 17 0 30 -4 30 -10 0 -5
7 -10 15 -10 22 0 18 28 -7 54 -98 100 -131 140 -120 144 6 2 12 15 12 28 0
13 5 24 10 24 6 0 10 9 10 20 0 11 5 20 10 20 6 0 10 9 10 20 0 11 4 20 9 20
5 0 14 12 20 28 6 15 21 33 32 40 16 11 20 10 26 -5 13 -33 72 -83 98 -83 14
0 25 -4 25 -10 0 -5 20 -10 45 -10 37 0 45 3 45 18 0 10 -12 30 -27 44 -31 30
-122 78 -147 78 -12 0 -16 11 -16 47 0 26 -4 60 -10 77 -5 17 -12 43 -14 57
-8 40 -78 106 -126 119 -70 19 -156 -6 -225 -64 -16 -14 -35 -30 -42 -36 -18
-15 -43 -1 -43 26 0 13 -4 24 -10 24 -5 0 -10 6 -10 13 0 18 -65 77 -85 77 -8
0 -15 5 -15 10 0 16 -64 11 -79 -6z m120 -57 c55 -52 75 -97 43 -97 -22 0
-113 90 -114 113 0 27 33 20 71 -16z m392 -23 c72 -37 107 -94 107 -176 0 -61
-12 -74 -82 -84 -89 -13 -278 -125 -278 -164 0 -7 -12 -24 -28 -38 -15 -15
-33 -39 -40 -53 -8 -14 -25 -39 -38 -54 -13 -15 -24 -31 -24 -35 0 -4 -9 -18
-20 -31 -31 -38 -34 -42 -49 -71 -8 -16 -18 -28 -23 -28 -4 0 -8 -7 -8 -15 0
-8 -4 -15 -10 -15 -5 0 -10 -9 -10 -20 0 -11 -4 -20 -10 -20 -5 0 -10 -8 -10
-18 0 -10 -9 -24 -20 -32 -11 -8 -20 -22 -20 -32 0 -10 -4 -18 -10 -18 -5 0
-10 -9 -10 -20 0 -11 -3 -20 -8 -20 -4 0 -14 -15 -21 -32 -8 -18 -30 -58 -48
-88 -18 -30 -33 -63 -33 -72 0 -10 -4 -18 -10 -18 -5 0 -10 -9 -10 -20 0 -11
-4 -20 -10 -20 -5 0 -10 -9 -10 -20 0 -11 -4 -20 -10 -20 -5 0 -10 -9 -10 -19
0 -11 -4 -23 -10 -26 -5 -3 -10 -15 -10 -26 0 -10 -4 -19 -10 -19 -5 0 -10
-13 -10 -30 0 -16 -4 -30 -10 -30 -5 0 -10 -9 -10 -20 0 -11 -4 -20 -10 -20
-5 0 -10 -13 -10 -30 0 -16 -4 -30 -10 -30 -5 0 -10 -8 -10 -18 0 -10 -3 -22
-7 -25 -14 -14 -93 -253 -100 -304 -3 -18 -9 -33 -14 -33 -5 0 -9 -15 -9 -34
0 -19 -4 -38 -10 -41 -5 -3 -10 -21 -10 -40 0 -19 -4 -37 -10 -40 -5 -3 -10
-24 -10 -46 0 -22 -6 -47 -14 -55 -16 -16 -96 -19 -96 -4 0 6 -11 10 -25 10
-14 0 -25 5 -25 10 0 6 -11 10 -25 10 -14 0 -25 5 -25 10 0 6 -7 10 -15 10 -9
0 -38 12 -66 26 -47 23 -52 24 -74 10 -13 -9 -26 -25 -30 -36 -3 -11 -10 -20
-15 -20 -5 0 -11 -8 -15 -19 -3 -10 -17 -31 -30 -47 -14 -16 -25 -35 -25 -41
0 -7 -4 -13 -10 -13 -5 0 -10 -7 -10 -15 0 -8 -4 -15 -10 -15 -5 0 -10 -7 -10
-15 0 -8 -4 -15 -10 -15 -5 0 -10 -5 -10 -10 0 -6 -9 -20 -20 -32 -11 -12 -20
-28 -20 -35 0 -7 -4 -13 -9 -13 -5 0 -13 -9 -16 -20 -3 -11 -12 -26 -18 -32
-7 -7 -30 -41 -52 -75 -22 -35 -43 -63 -47 -63 -5 0 -8 -8 -8 -18 0 -10 -9
-24 -20 -32 -11 -8 -20 -22 -20 -32 0 -10 -4 -18 -10 -18 -5 0 -10 -6 -10 -13
0 -7 -9 -23 -20 -35 -11 -12 -20 -24 -20 -27 0 -7 -91 -148 -100 -155 -4 -3
-17 -25 -31 -50 -13 -25 -27 -46 -31 -48 -5 -2 -8 -15 -8 -28 0 -13 -4 -24
-10 -24 -5 0 -10 -13 -10 -30 0 -16 -4 -30 -10 -30 -6 0 -10 -42 -10 -105 0
-63 4 -105 10 -105 6 0 10 -6 10 -13 0 -18 24 -67 33 -67 4 0 7 -7 7 -15 0 -9
22 -37 49 -63 26 -26 51 -57 55 -69 4 -13 12 -23 17 -23 5 0 9 -8 9 -18 0 -10
9 -24 20 -32 11 -8 20 -20 20 -28 0 -18 46 -62 65 -62 8 0 15 -4 15 -10 0 -5
9 -10 20 -10 15 0 20 -7 21 -27 2 -64 -3 -118 -12 -121 -5 -2 -9 -17 -9 -32 0
-16 -4 -32 -10 -35 -5 -3 -10 -19 -10 -36 0 -16 -4 -29 -10 -29 -5 0 -10 -11
-10 -25 0 -14 -4 -25 -10 -25 -5 0 -10 -11 -10 -25 0 -14 -4 -25 -10 -25 -5 0
-10 -13 -10 -30 0 -16 -4 -30 -10 -30 -5 0 -10 -9 -10 -20 0 -11 -4 -20 -10
-20 -5 0 -10 -6 -10 -12 1 -16 -132 -282 -142 -286 -5 -2 -8 -12 -8 -23 0 -10
-4 -19 -10 -19 -5 0 -10 -7 -10 -15 0 -8 -4 -15 -10 -15 -5 0 -10 -9 -10 -20
0 -11 -4 -20 -10 -20 -5 0 -10 -7 -10 -15 0 -8 -4 -15 -10 -15 -5 0 -10 -7
-10 -15 0 -9 -5 -21 -10 -28 -6 -7 -32 -46 -57 -87 -26 -41 -53 -81 -60 -88
-7 -7 -13 -17 -13 -22 0 -5 -11 -20 -25 -34 -14 -14 -25 -30 -25 -37 0 -6 -8
-19 -18 -28 -9 -9 -24 -29 -32 -46 -8 -16 -30 -45 -47 -64 -18 -20 -33 -38
-33 -42 0 -3 -9 -17 -20 -30 -11 -13 -32 -39 -47 -58 -16 -18 -38 -44 -50 -57
-13 -13 -23 -27 -23 -31 0 -5 -9 -15 -20 -23 -11 -8 -20 -18 -20 -22 0 -5 -45
-53 -100 -108 -64 -64 -108 -100 -121 -100 -12 0 -58 19 -103 43 -113 60 -129
70 -147 90 -9 9 -23 17 -30 17 -8 0 -21 9 -29 20 -8 11 -19 20 -24 20 -11 0
-156 142 -156 153 0 4 -11 19 -25 33 -14 14 -25 29 -25 34 0 5 -6 15 -14 22
-20 21 -106 156 -106 168 0 6 -4 10 -10 10 -5 0 -10 9 -10 20 0 11 -4 20 -10
20 -5 0 -10 18 -10 40 0 22 -4 40 -10 40 -5 0 -10 20 -10 45 0 25 -4 45 -10
45 -6 0 -10 27 -10 60 0 33 -4 60 -10 60 -6 0 -10 70 -10 190 0 120 4 190 10
190 6 0 10 23 10 50 0 28 5 50 10 50 6 0 10 18 10 40 0 22 5 40 10 40 6 0 10
13 10 29 0 17 4 33 10 36 6 3 10 19 10 36 0 16 5 29 10 29 6 0 10 7 10 15 0 8
11 39 24 69 18 40 53 84 138 168 62 62 135 131 163 153 27 22 56 46 63 53 7 6
17 12 22 12 5 0 20 11 34 25 14 14 32 25 41 25 8 0 15 5 15 10 0 6 7 10 15 10
8 0 15 5 15 10 0 6 7 10 15 10 8 0 15 5 15 10 0 6 7 10 15 10 8 0 15 5 15 10
0 6 7 10 15 10 9 0 21 5 28 10 20 17 129 80 138 80 5 0 9 5 9 10 0 6 9 10 20
10 11 0 20 5 20 10 0 6 9 10 20 10 11 0 20 5 20 10 0 6 6 10 13 10 19 0 87 65
87 84 0 9 5 16 11 16 7 0 9 25 5 78 -15 200 -17 305 -7 315 6 6 11 37 11 68 0
32 5 61 10 64 6 3 10 16 10 28 0 40 81 226 103 235 4 2 7 8 7 13 0 13 127 139
140 139 5 0 10 5 10 10 0 6 5 10 11 10 6 0 16 6 24 13 27 25 51 43 88 62 20
11 37 22 37 25 0 4 24 17 53 29 28 12 60 27 69 32 10 5 29 9 43 9 14 0 25 5
25 10 0 6 22 10 49 10 28 0 53 5 56 10 4 6 53 10 115 10 62 0 111 -4 115 -10
3 -5 44 -10 91 -10 77 0 87 2 109 25 14 13 25 30 25 37 0 8 9 20 20 28 11 8
20 20 20 27 0 7 5 13 10 13 6 0 10 7 10 15 0 8 5 15 10 15 6 0 10 7 10 15 0 8
3 15 8 15 4 0 20 21 37 48 16 26 37 54 47 63 10 9 18 22 18 29 0 7 8 20 18 29
10 9 25 31 33 49 7 17 17 32 21 32 5 0 8 7 8 15 0 8 5 15 10 15 6 0 10 7 10
15 0 8 4 15 9 15 5 0 13 9 16 20 3 11 12 26 18 32 7 7 39 58 72 113 33 55 63
102 67 103 5 2 8 12 8 23 0 10 5 19 10 19 6 0 10 7 10 15 0 8 3 15 8 15 8 0
32 48 32 66 0 7 3 14 8 16 4 2 22 32 41 68 19 36 39 72 45 80 7 8 23 38 37 65
13 28 27 52 32 53 4 2 7 12 7 23 0 10 5 19 10 19 6 0 10 9 10 20 0 11 5 20 10
20 6 0 10 9 10 20 0 11 5 20 10 20 6 0 10 9 10 20 0 11 5 20 10 20 6 0 10 9
10 19 0 11 5 23 10 26 6 3 10 15 10 26 0 10 5 19 10 19 6 0 10 7 10 15 0 24
76 167 104 197 14 15 26 34 26 43 0 8 5 15 10 15 6 0 10 12 10 26 0 37 28 84
56 95 6 2 30 20 53 39 44 37 112 69 149 69 13 1 37 -6 55 -15z m-497 -214 c8
0 14 -7 14 -15 0 -8 5 -15 10 -15 6 0 10 -13 10 -30 0 -25 -4 -30 -25 -30 -33
0 -75 20 -75 37 0 7 -4 13 -10 13 -5 0 -10 9 -10 19 0 20 30 32 58 25 8 -2 20
-4 28 -4z m534 -98 c0 -10 -9 -28 -20 -40 -11 -12 -20 -28 -20 -37 0 -8 -4
-15 -10 -15 -5 0 -10 -11 -10 -25 0 -14 -4 -25 -10 -25 -5 0 -10 -18 -10 -40
0 -34 6 -45 40 -76 38 -34 52 -64 30 -64 -5 0 -10 5 -10 10 0 6 -9 10 -20 10
-11 0 -20 5 -20 10 0 6 -13 10 -30 10 -16 0 -30 4 -30 9 0 5 -14 11 -31 13
-30 5 -32 3 -77 -91 -26 -53 -50 -97 -54 -99 -5 -2 -8 -15 -8 -28 0 -13 -4
-24 -10 -24 -5 0 -10 -11 -10 -25 0 -14 -4 -25 -10 -25 -5 0 -10 -9 -10 -20 0
-11 -4 -20 -10 -20 -5 0 -10 -9 -10 -20 0 -11 -4 -20 -10 -20 -5 0 -10 -9 -10
-20 0 -11 -4 -20 -10 -20 -5 0 -10 -9 -10 -19 0 -11 -4 -23 -10 -26 -5 -3 -10
-15 -10 -25 0 -10 -4 -20 -9 -22 -12 -4 -61 -103 -61 -123 0 -8 -4 -15 -10
-15 -5 0 -10 -7 -10 -15 0 -8 -9 -30 -20 -50 -11 -20 -20 -42 -20 -50 0 -8 -4
-15 -10 -15 -5 0 -10 -9 -10 -20 0 -11 -4 -20 -10 -20 -5 0 -10 -9 -10 -20 0
-11 -4 -20 -10 -20 -5 0 -10 -11 -10 -25 0 -14 -4 -25 -10 -25 -5 0 -10 -9
-10 -20 0 -11 -4 -20 -10 -20 -5 0 -10 -6 -10 -14 0 -12 -83 -197 -121 -268
-5 -10 -9 -25 -9 -33 0 -8 -4 -15 -10 -15 -5 0 -10 -11 -10 -24 0 -14 -4 -28
-10 -31 -5 -3 -10 -15 -10 -26 0 -10 -4 -19 -10 -19 -5 0 -10 -13 -10 -30 0
-16 -4 -30 -10 -30 -5 0 -10 -16 -10 -35 0 -19 -4 -35 -10 -35 -19 0 -10 -27
20 -58 17 -18 30 -36 30 -40 0 -5 13 -22 28 -38 32 -34 94 -126 113 -166 7
-16 16 -28 21 -28 4 0 8 -9 8 -20 0 -11 5 -20 10 -20 6 0 10 -9 10 -20 0 -11
5 -20 10 -20 6 0 10 -11 10 -25 0 -14 5 -25 10 -25 6 0 10 -13 10 -30 0 -16 4
-30 9 -30 9 0 21 -94 23 -185 1 -71 -13 -185 -23 -185 -5 0 -9 -18 -9 -40 0
-22 -4 -40 -10 -40 -5 0 -10 -11 -10 -25 0 -14 -4 -25 -10 -25 -5 0 -10 -13
-10 -30 0 -16 -4 -30 -10 -30 -5 0 -10 -9 -10 -20 0 -11 -4 -20 -10 -20 -5 0
-10 -7 -10 -15 0 -8 -17 -32 -38 -55 -43 -45 -77 -51 -154 -27 -74 22 -188
159 -188 227 0 11 -4 20 -10 20 -5 0 -10 18 -10 40 0 22 -4 40 -10 40 -6 0
-10 27 -10 60 0 33 -4 60 -10 60 -6 0 -10 66 -10 179 0 109 4 182 10 186 6 3
10 44 10 91 0 49 4 84 10 84 6 0 10 28 10 65 0 37 4 65 10 65 6 0 10 14 10 30
0 17 5 30 10 30 6 0 10 9 10 20 0 11 3 20 8 20 4 0 25 34 47 75 22 41 43 75
48 75 4 0 7 9 7 20 0 11 5 20 10 20 6 0 10 9 10 20 0 11 5 20 10 20 6 0 10 9
10 20 0 11 5 20 10 20 6 0 10 9 10 20 0 11 5 20 10 20 6 0 10 9 10 20 0 11 5
20 10 20 6 0 10 9 10 19 0 11 5 23 10 26 6 3 10 15 10 25 0 10 4 20 8 22 9 3
87 153 113 216 8 17 17 32 21 32 5 0 8 9 8 19 0 11 5 23 10 26 6 3 10 15 10
26 0 10 5 19 10 19 6 0 10 9 10 20 0 11 5 20 10 20 6 0 10 11 10 25 0 14 5 25
10 25 6 0 10 11 10 25 0 14 5 25 10 25 6 0 10 9 10 20 0 11 5 20 10 20 6 0 10
9 10 20 0 11 5 20 10 20 6 0 10 7 10 15 0 8 4 23 9 33 31 58 81 175 81 188 0
7 5 14 10 14 6 0 10 9 10 19 0 11 5 23 10 26 6 3 10 15 10 26 0 10 5 19 10 19
6 0 10 14 10 30 0 17 5 30 10 30 6 0 10 9 10 20 0 11 5 20 10 20 6 0 10 9 10
20 0 11 5 20 10 20 6 0 10 14 10 30 0 17 5 30 10 30 6 0 10 9 10 19 0 11 4 22
8 25 4 3 14 28 22 55 8 29 19 51 27 51 7 0 13 5 13 10 0 6 9 10 20 10 11 0 20
3 20 8 0 8 49 32 67 32 7 0 13 4 13 9 0 6 15 12 33 14 17 2 35 5 40 5 4 1 7
-6 7 -16z m185 -4 c14 -6 25 -15 25 -20 0 -4 7 -8 15 -8 8 0 15 -4 15 -10 0
-20 -61 -10 -85 15 -14 13 -25 27 -25 30 0 9 28 6 55 -7z m-495 -218 c0 -11
-4 -20 -10 -20 -5 0 -10 -9 -10 -20 0 -11 -4 -20 -10 -20 -5 0 -10 -13 -10
-30 0 -16 -4 -30 -10 -30 -5 0 -10 -7 -10 -15 0 -8 -4 -23 -9 -33 -23 -44 -81
-174 -81 -182 0 -4 -9 -25 -19 -47 -11 -21 -25 -53 -33 -70 -7 -18 -16 -33
-20 -33 -5 0 -8 -11 -8 -24 0 -14 -4 -28 -10 -31 -5 -3 -10 -15 -10 -26 0 -10
-4 -19 -10 -19 -5 0 -10 -9 -10 -20 0 -11 -4 -20 -10 -20 -5 0 -10 -9 -10 -19
0 -11 -4 -23 -10 -26 -5 -3 -10 -15 -10 -26 0 -10 -4 -19 -10 -19 -5 0 -10 -9
-10 -20 0 -11 -4 -20 -10 -20 -5 0 -10 -7 -10 -16 0 -9 -20 -55 -45 -102 -25
-47 -45 -91 -45 -98 0 -8 -4 -14 -10 -14 -5 0 -10 -9 -10 -20 0 -11 -4 -20
-10 -20 -5 0 -10 -9 -10 -20 0 -11 -4 -20 -10 -20 -5 0 -10 -9 -10 -20 0 -11
-4 -20 -10 -20 -5 0 -10 -9 -10 -20 0 -11 -4 -20 -10 -20 -5 0 -10 -9 -10 -20
0 -11 -4 -20 -10 -20 -5 0 -10 -7 -10 -15 0 -8 -8 -29 -18 -47 -10 -18 -36
-66 -56 -105 -21 -40 -42 -70 -47 -67 -12 7 -11 51 1 59 6 3 10 16 10 27 0 22
84 281 100 310 6 10 10 27 10 38 0 11 5 20 10 20 6 0 10 11 10 25 0 14 5 25
10 25 6 0 10 14 10 30 0 17 5 30 10 30 6 0 10 9 10 20 0 11 5 20 10 20 6 0 10
14 10 30 0 17 3 30 8 30 4 0 13 15 21 33 27 65 126 262 134 265 4 2 7 10 7 18
0 8 5 14 10 14 6 0 10 10 10 23 0 12 9 29 20 37 11 8 20 22 20 32 0 10 5 18
10 18 6 0 10 9 10 20 0 11 5 20 10 20 6 0 10 7 10 15 0 8 5 15 10 15 6 0 10 7
10 15 0 8 5 15 10 15 6 0 10 4 10 10 0 11 42 77 67 105 10 11 24 32 32 48 8
15 18 27 23 27 4 0 8 7 8 15 0 8 5 15 10 15 6 0 10 7 10 15 0 8 5 15 10 15 6
0 10 -9 10 -20z m-1042 -1552 c2 -4 12 -8 23 -8 10 0 19 -4 19 -10 0 -5 14
-10 30 -10 17 0 30 -4 30 -10 0 -5 11 -10 25 -10 14 0 25 -4 25 -10 0 -5 11
-10 24 -10 14 0 28 -4 31 -10 3 -5 19 -10 36 -10 24 0 29 -4 29 -25 0 -14 -4
-25 -10 -25 -6 0 -10 -30 -10 -70 0 -40 -4 -70 -10 -70 -6 0 -10 -100 -10
-280 0 -180 4 -280 10 -280 6 0 10 -22 10 -50 0 -27 5 -50 10 -50 6 0 10 -16
10 -35 0 -19 5 -35 10 -35 6 0 10 -9 10 -20 0 -11 5 -20 10 -20 6 0 10 -9 10
-20 0 -11 5 -20 10 -20 6 0 10 -6 10 -13 0 -19 70 -90 113 -115 21 -12 54 -22
73 -22 19 0 34 -4 34 -10 0 -11 -62 -73 -146 -145 -90 -78 -162 -152 -169
-174 -3 -12 -11 -21 -16 -21 -12 0 -12 -67 1 -75 6 -3 10 -26 10 -51 0 -24 5
-44 10 -44 6 0 10 -18 10 -40 0 -22 5 -40 10 -40 6 0 10 -27 10 -60 0 -33 4
-60 9 -60 10 0 13 -35 30 -265 10 -140 3 -392 -11 -401 -4 -3 -8 -25 -8 -50 0
-24 -4 -44 -10 -44 -5 0 -10 -13 -10 -30 0 -16 -4 -30 -10 -30 -5 0 -10 -13
-10 -30 0 -16 -4 -30 -10 -30 -5 0 -10 -6 -10 -14 0 -21 -89 -188 -111 -207
-10 -9 -19 -22 -19 -28 0 -7 -18 -30 -40 -51 -22 -21 -40 -41 -40 -45 0 -11
-79 -83 -111 -102 -16 -9 -29 -21 -29 -25 0 -4 -7 -8 -15 -8 -8 0 -15 -4 -15
-10 0 -5 -8 -10 -18 -10 -10 0 -24 -9 -32 -20 -8 -11 -22 -20 -31 -20 -10 0
-19 -4 -21 -8 -9 -22 -261 -122 -307 -122 -11 0 -23 -4 -26 -10 -3 -5 -26 -10
-51 -10 -24 0 -44 -4 -44 -10 0 -6 -35 -10 -85 -10 -50 0 -85 -4 -85 -10 0 -6
-50 -10 -130 -10 -80 0 -130 4 -130 10 0 6 -35 10 -85 10 -50 0 -85 4 -85 10
0 6 -22 10 -50 10 -27 0 -50 5 -50 10 0 6 -11 10 -24 10 -14 0 -27 4 -30 8 -5
9 61 87 152 179 28 29 52 56 52 61 0 4 9 14 20 22 11 8 20 18 20 23 0 5 6 14
13 21 6 7 30 34 52 61 22 26 45 53 50 59 6 6 21 28 35 48 14 21 28 38 33 38 4
0 7 7 7 15 0 8 5 15 10 15 6 0 10 7 10 15 0 8 5 15 10 15 6 0 10 6 10 13 0 7
9 19 20 27 11 8 20 21 20 30 0 9 9 22 20 30 11 8 20 20 20 28 0 7 11 25 25 40
14 15 31 39 38 55 6 15 15 27 19 27 5 0 8 7 8 15 0 8 5 15 10 15 6 0 10 8 10
18 0 10 9 24 20 32 11 8 20 22 20 32 0 10 5 18 10 18 6 0 10 9 10 20 0 11 5
20 10 20 6 0 10 9 10 20 0 11 5 20 10 20 6 0 10 6 10 14 0 8 4 16 8 18 4 2 35
57 67 123 33 66 63 122 68 123 4 2 7 12 7 23 0 10 5 19 10 19 6 0 10 14 10 30
0 17 5 30 10 30 6 0 10 9 10 20 0 11 5 20 10 20 6 0 10 11 10 25 0 14 5 25 10
25 6 0 10 10 10 23 0 13 4 27 8 33 5 5 18 41 29 79 60 196 58 229 -9 264 -16
8 -28 18 -28 23 0 4 -7 8 -15 8 -8 0 -15 4 -15 10 0 5 -10 19 -22 32 -27 27
-54 76 -46 83 3 3 25 -1 49 -9 24 -9 61 -16 82 -16 44 0 144 27 152 41 4 5 15
9 26 9 10 0 19 3 19 8 0 4 18 18 40 32 22 14 40 28 40 31 0 4 13 21 29 38 17
18 33 41 36 52 4 10 11 19 16 19 5 0 9 9 9 20 0 11 5 20 10 20 6 0 10 9 10 19
0 11 5 23 10 26 6 3 10 19 10 36 0 16 5 29 10 29 6 0 10 30 10 70 0 40 -4 70
-10 70 -5 0 -10 16 -10 35 0 19 -4 35 -8 35 -5 0 -15 12 -23 28 -18 35 -75 89
-111 104 -15 7 -28 16 -28 20 0 5 -9 8 -20 8 -11 0 -20 4 -20 9 0 26 -242 40
-292 17 -14 -6 -18 -4 -18 13 0 12 5 21 10 21 6 0 10 7 10 15 0 8 5 15 10 15
6 0 10 8 10 18 0 10 9 24 20 32 11 8 20 20 20 28 0 7 9 22 20 34 11 12 20 28
20 35 0 7 3 13 8 13 4 0 25 29 47 65 22 36 43 65 47 65 4 0 8 8 8 18 0 10 9
24 20 32 11 8 20 21 20 30 0 9 9 22 20 30 11 8 20 20 20 28 0 7 6 19 13 27 29
31 47 56 47 66 0 7 8 19 18 28 9 9 30 35 45 59 24 37 31 41 55 36 15 -4 29
-11 30 -16z m-250 -728 c2 -6 13 -10 25 -10 12 0 33 -9 47 -20 14 -11 30 -20
35 -20 6 0 17 -9 25 -20 8 -11 20 -20 26 -20 6 0 17 -13 24 -30 7 -16 16 -30
21 -30 5 0 9 -9 9 -20 0 -11 5 -20 10 -20 6 0 10 -38 10 -94 0 -53 -4 -98 -10
-101 -5 -3 -10 -17 -10 -31 0 -13 -4 -24 -8 -24 -4 0 -13 -15 -20 -32 -7 -18
-24 -47 -40 -64 -15 -18 -34 -41 -42 -53 -8 -12 -19 -21 -24 -21 -5 0 -16 -8
-25 -19 -9 -10 -36 -29 -61 -42 -38 -20 -59 -24 -141 -24 -81 0 -102 4 -142
24 -26 13 -47 25 -47 26 0 1 -12 35 -27 76 -43 122 -64 293 -43 364 17 56 46
120 67 145 26 30 81 62 122 71 46 10 215 1 219 -11z m-438 -369 c0 -50 5 -93
10 -96 6 -3 10 -17 10 -31 0 -14 5 -34 11 -46 6 -11 8 -22 5 -25 -8 -8 -36 24
-36 41 0 9 -4 16 -10 16 -5 0 -10 16 -10 35 0 19 -4 35 -10 35 -5 0 -10 23
-10 50 0 28 5 50 10 50 6 0 10 14 10 30 0 17 5 30 10 30 6 0 10 -36 10 -89z
m3966 -860 c78 -25 144 -54 144 -63 0 -5 8 -8 18 -8 10 0 24 -9 32 -20 8 -11
21 -20 28 -20 21 0 93 -81 135 -151 35 -60 37 -68 37 -152 0 -75 -4 -95 -26
-140 -15 -29 -30 -53 -35 -55 -5 -2 -9 -10 -9 -18 0 -21 -179 -194 -200 -194
-6 0 -10 -4 -10 -10 0 -5 -8 -10 -18 -10 -10 0 -24 -9 -32 -20 -8 -11 -22 -20
-32 -20 -10 0 -18 -4 -18 -10 0 -5 -9 -10 -20 -10 -11 0 -20 -4 -20 -9 0 -22
-269 -40 -330 -22 -129 37 -190 57 -190 64 0 4 -11 7 -25 7 -14 0 -25 5 -25
10 0 6 -9 10 -20 10 -11 0 -20 5 -20 10 0 6 -9 10 -20 10 -11 0 -20 5 -20 10
0 6 -9 10 -20 10 -11 0 -20 4 -20 9 0 5 -14 14 -31 22 -36 14 -192 118 -197
131 -2 4 -9 8 -16 8 -7 0 -27 14 -44 30 -18 17 -39 30 -47 30 -30 0 -13 33 48
90 107 103 126 120 132 120 3 0 21 16 41 35 19 19 39 35 44 35 5 0 19 10 32
23 13 12 43 36 68 52 25 17 47 33 48 38 2 4 10 7 18 7 8 0 14 5 14 10 0 6 9
10 20 10 11 0 20 5 20 10 0 6 7 10 15 10 8 0 15 5 15 10 0 6 11 10 24 10 13 0
26 3 28 8 3 6 69 41 123 63 42 17 123 40 171 48 81 14 128 12 190 -8z m3074
-5211 c0 -5 16 -10 35 -10 19 0 35 -4 35 -10 0 -5 12 -10 26 -10 48 0 54 -17
54 -159 0 -204 -38 -341 -94 -341 -9 0 -16 -4 -16 -10 0 -5 -7 -10 -15 -10
-19 0 -65 -40 -65 -56 0 -19 -34 -26 -84 -19 -56 9 -86 -6 -86 -44 0 -43 40
-71 101 -71 l50 0 -3 -37 c-2 -31 -7 -39 -25 -41 -13 -2 -23 1 -23 7 0 6 -13
11 -30 11 -16 0 -30 5 -30 10 0 6 -7 10 -15 10 -8 0 -15 -4 -15 -10 0 -5 -11
-10 -25 -10 -22 0 -25 -4 -25 -40 0 -45 -3 -44 105 -45 l60 0 3 -36 c2 -25 -3
-40 -18 -54 -11 -10 -20 -13 -20 -8 0 6 -15 14 -32 17 -18 4 -45 9 -60 12 -20
5 -33 0 -54 -21 -24 -24 -25 -29 -14 -51 12 -21 20 -24 72 -24 32 0 58 4 58
10 0 6 12 10 26 10 21 0 25 -3 19 -17 -4 -10 -14 -37 -22 -60 -8 -24 -19 -43
-25 -43 -12 0 -51 20 -58 30 -3 4 -26 10 -52 14 -40 6 -49 4 -66 -14 -17 -18
-18 -26 -9 -50 15 -39 49 -55 117 -53 l58 1 -4 -36 c-9 -68 -14 -82 -29 -82
-8 0 -15 5 -15 10 0 6 -9 10 -20 10 -11 0 -20 5 -20 10 0 6 -13 10 -30 10 -16
0 -30 -4 -30 -10 0 -5 -10 -10 -21 -10 -12 0 -30 -10 -40 -22 -22 -25 -22 -21
-7 -53 14 -31 41 -39 113 -33 52 4 55 3 55 -19 0 -45 -24 -103 -42 -103 -10 0
-18 3 -18 8 0 12 -52 32 -86 32 -19 0 -34 -6 -38 -15 -7 -20 14 -65 31 -65 7
0 13 -5 13 -11 0 -6 16 -10 38 -8 20 1 43 1 50 0 17 -2 15 -79 -3 -97 -13 -14
-21 -12 -69 15 -58 34 -82 37 -108 17 -21 -15 -23 -44 -6 -81 11 -23 16 -25
85 -25 l73 0 0 -29 c0 -17 -4 -33 -10 -36 -5 -3 -10 -21 -10 -40 0 -19 -4 -36
-9 -39 -5 -3 -11 -20 -14 -38 -2 -18 -21 -91 -42 -163 -20 -71 -40 -146 -45
-165 -12 -55 -21 -70 -41 -70 -10 0 -19 -4 -19 -9 0 -5 -14 -11 -31 -15 -17
-3 -66 -21 -110 -40 -93 -41 -93 -40 -86 61 5 63 11 98 36 213 5 25 15 67 21
95 13 64 48 201 60 241 6 17 10 40 10 52 0 11 5 24 10 27 6 3 10 21 10 40 0
19 5 37 10 40 6 3 10 24 10 46 0 21 5 39 10 39 6 0 10 14 10 30 0 17 5 30 10
30 6 0 10 20 10 45 0 25 5 45 10 45 6 0 10 18 10 40 0 22 4 40 9 40 5 0 11 15
14 33 9 54 18 91 27 112 5 11 11 31 13 45 12 59 70 277 78 292 5 10 9 31 9 48
0 16 5 30 10 30 6 0 10 18 10 40 0 22 5 40 10 40 6 0 10 18 10 39 0 22 5 43
10 46 6 3 10 33 10 66 0 33 -4 59 -10 59 -5 0 -10 13 -10 29 0 17 -4 33 -10
36 -5 3 -10 33 -10 66 0 33 4 59 10 59 6 0 10 9 10 20 0 11 5 20 10 20 6 0 10
11 10 25 0 14 5 25 10 25 6 0 10 7 10 15 0 8 5 15 10 15 6 0 10 9 10 20 0 11
5 20 10 20 6 0 10 7 10 15 0 8 4 15 9 15 5 0 13 9 16 20 3 11 12 26 18 32 7 7
20 25 30 41 16 24 23 27 77 27 33 0 60 -4 60 -10z m-147 -826 c13 -14 -7 -34
-34 -34 -22 0 -29 5 -29 20 0 15 7 20 28 20 16 0 31 -3 35 -6z m-3 -171 c0 -8
-48 -33 -63 -33 -9 0 -37 25 -37 34 0 3 23 6 50 6 28 0 50 -3 50 -7z m-77
-149 c58 -30 58 -54 -1 -54 -44 0 -82 23 -82 51 0 24 38 26 83 3z m-8 -206
c14 -6 25 -14 25 -18 0 -4 -11 -12 -25 -18 -42 -19 -115 -13 -115 9 0 35 64
50 115 27z m-95 -188 c0 -5 9 -10 20 -10 11 0 20 -4 20 -10 0 -5 -16 -10 -35
-10 -38 0 -38 0 -29 24 7 18 24 22 24 6z m-17 -176 c9 -4 17 -15 17 -25 0 -15
-7 -19 -40 -19 -34 0 -41 4 -46 24 -8 35 2 47 29 35 12 -5 30 -12 40 -15z
m-113 -723 c0 -22 -4 -43 -10 -46 -13 -8 -13 -85 -1 -85 5 0 12 -33 15 -72 3
-40 8 -97 12 -125 l6 -53 -45 0 c-25 0 -49 5 -52 10 -3 6 -35 10 -71 10 -35 0
-64 4 -64 9 0 5 -9 11 -21 14 -19 5 -17 9 20 43 47 42 57 68 41 109 -16 43
-53 95 -67 95 -27 0 -12 35 20 48 17 8 41 17 52 22 11 4 38 16 59 25 38 17 83
32 99 34 4 1 7 -17 7 -38z m-246 -124 c42 -42 61 -93 43 -116 -39 -49 -79 -81
-102 -81 -14 0 -25 5 -25 10 0 6 -8 10 -17 10 -10 0 -29 9 -42 19 -21 16 -22
21 -11 41 7 13 21 33 31 44 11 11 19 24 19 28 0 7 60 75 68 77 1 1 18 -14 36
-32z m-6164 -326 c130 -12 238 -32 375 -71 22 -6 50 -14 63 -17 12 -3 22 -9
22 -14 0 -5 14 -9 30 -9 17 0 30 -4 30 -10 0 -5 9 -10 20 -10 11 0 20 -4 20
-10 0 -5 9 -10 20 -10 11 0 20 -4 20 -10 0 -5 9 -10 20 -10 11 0 20 -4 20 -10
0 -5 7 -10 15 -10 8 0 15 -4 15 -9 0 -5 9 -12 20 -16 11 -3 38 -24 60 -45 32
-31 40 -45 40 -75 0 -41 -18 -65 -49 -65 -12 0 -21 -4 -21 -10 0 -5 -15 -10
-34 -10 -19 0 -37 -4 -40 -9 -3 -5 -20 -11 -38 -14 -18 -3 -52 -10 -75 -16
-312 -79 -618 -120 -756 -101 -87 12 -177 39 -177 52 0 4 -6 8 -14 8 -29 0
-27 40 7 142 19 57 37 117 41 133 3 17 8 40 12 53 5 18 2 22 -16 22 -25 0 -50
-22 -50 -44 0 -9 -4 -16 -8 -16 -5 0 -14 -16 -22 -35 -8 -19 -17 -35 -21 -35
-7 0 -15 -38 -25 -117 -4 -28 -2 -43 5 -43 6 0 11 -18 11 -40 0 -22 -4 -40
-10 -40 -5 0 -10 -11 -10 -24 0 -35 -37 -39 -299 -31 -546 14 -801 79 -801
203 0 33 7 45 45 81 45 42 145 101 171 101 8 0 14 5 14 10 0 6 11 10 25 10 14
0 25 5 25 10 0 6 11 10 25 10 14 0 25 5 25 10 0 6 13 10 29 10 17 0 33 5 36
10 3 6 19 10 35 10 16 0 31 4 34 9 3 5 23 11 43 14 21 3 58 10 83 17 136 34
294 57 474 70 76 5 141 12 145 16 7 7 245 -2 391 -15z m-429 -319 c-6 -2 -11
-17 -11 -33 0 -16 -4 -29 -10 -29 -5 0 -10 14 -10 30 0 17 5 30 10 30 6 0 10
8 10 18 0 29 15 37 18 11 2 -13 -1 -25 -7 -27z m-31 -312 c0 -11 -4 -20 -10
-20 -5 0 -10 -13 -10 -30 0 -16 -4 -30 -10 -30 -5 0 -10 -16 -10 -35 0 -19 -4
-35 -10 -35 -5 0 -10 -18 -10 -40 0 -22 -4 -40 -10 -40 -5 0 -10 -13 -10 -30
0 -16 -4 -30 -10 -30 -5 0 -10 -18 -10 -40 0 -22 -4 -40 -10 -40 -5 0 -10 -13
-10 -29 0 -17 -4 -33 -10 -36 -5 -3 -10 -16 -10 -28 0 -12 -7 -42 -16 -67 -62
-175 -77 -256 -95 -500 -6 -85 -15 -216 -20 -290 -5 -74 -12 -213 -15 -307 -3
-100 -9 -173 -14 -173 -6 0 -10 -80 -10 -200 0 -127 4 -200 10 -200 6 0 10
-35 10 -84 0 -47 5 -88 10 -91 6 -3 10 -24 10 -45 0 -21 5 -42 10 -45 6 -3 10
-17 10 -31 0 -13 5 -24 10 -24 6 0 10 -9 10 -20 0 -15 -7 -20 -26 -20 -29 0
-54 21 -54 44 0 9 -4 16 -10 16 -6 0 -10 31 -10 73 0 40 -4 77 -9 83 -5 5 -12
50 -15 99 -3 50 -10 133 -16 185 -5 52 -14 140 -19 195 -10 103 -18 142 -32
160 -5 7 4 16 22 24 16 7 29 19 29 27 0 8 5 14 10 14 6 0 10 14 10 30 0 17 5
30 10 30 6 0 10 20 10 45 0 25 5 45 10 45 6 0 10 37 10 90 0 53 4 90 10 90 6
0 10 58 10 154 0 93 4 157 10 161 6 4 10 75 10 180 0 105 4 176 10 180 6 3 10
17 10 30 0 13 3 25 8 27 4 2 22 46 41 98 18 52 45 130 61 173 15 42 30 80 33
84 4 3 7 17 7 29 0 13 5 26 10 29 6 3 10 19 10 36 0 16 5 29 10 29 6 0 10 14
10 30 0 17 5 30 10 30 6 0 10 14 10 30 0 23 4 30 20 30 13 0 20 -7 20 -20z
m-1390 -570 c0 -6 33 -10 79 -10 44 0 83 -4 86 -10 3 -5 20 -10 37 -10 34 0
36 0 213 -57 66 -21 122 -41 123 -45 2 -5 17 -8 33 -8 16 0 29 -4 29 -10 0 -5
9 -10 19 -10 11 0 23 -4 26 -10 3 -5 17 -10 31 -10 13 0 24 -4 24 -10 0 -5 9
-10 20 -10 11 0 20 -4 20 -10 0 -5 5 -10 11 -10 16 0 39 -26 39 -44 0 -9 5
-16 10 -16 6 0 10 -42 10 -105 0 -63 4 -105 10 -105 6 0 10 -42 10 -105 0 -63
4 -105 10 -105 6 0 10 -40 10 -99 0 -56 4 -103 10 -106 6 -3 10 -42 10 -86 0
-62 -3 -79 -14 -79 -8 0 -17 4 -20 8 -3 4 -28 14 -56 22 -28 8 -53 18 -56 22
-3 4 -18 8 -35 8 -16 0 -29 5 -29 10 0 6 -18 10 -40 10 -22 0 -40 5 -40 10 0
6 -13 10 -30 10 -16 0 -30 5 -30 10 0 6 -13 10 -28 10 -15 0 -32 4 -38 9 -9 9
-39 14 -184 32 -157 20 -592 11 -606 -12 -3 -5 -32 -9 -65 -9 -33 0 -59 -4
-59 -10 0 -5 -22 -10 -50 -10 -27 0 -50 -4 -50 -10 0 -5 -20 -10 -45 -10 -25
0 -45 -4 -45 -10 0 -5 -18 -10 -40 -10 -22 0 -40 -4 -40 -10 0 -5 -13 -10 -29
-10 -17 0 -33 -4 -36 -10 -3 -5 -15 -10 -26 -10 -10 0 -27 -4 -37 -9 -62 -32
-202 -89 -205 -83 -3 4 -9 72 -16 152 -6 80 -16 188 -21 240 -6 52 -10 130
-10 172 0 42 -4 80 -10 83 -5 3 -10 42 -10 86 0 46 4 79 10 79 6 0 10 5 10 11
0 16 31 38 53 39 9 0 17 5 17 10 0 6 9 10 20 10 11 0 20 5 20 10 0 6 11 10 25
10 14 0 25 5 25 10 0 6 11 10 25 10 14 0 25 5 25 10 0 6 7 10 15 10 8 0 23 4
33 9 9 5 28 13 42 18 14 6 36 15 50 21 124 55 336 109 460 119 36 2 69 9 75
14 13 13 225 12 225 -1z m290 -960 c0 -6 30 -10 70 -10 40 0 70 -4 70 -10 0
-5 25 -10 55 -10 30 0 55 -4 55 -10 0 -5 14 -10 30 -10 17 0 30 -4 30 -10 0
-5 10 -10 23 -10 13 0 27 -4 32 -9 6 -5 32 -21 59 -36 27 -15 60 -38 73 -51
13 -13 28 -24 33 -24 6 0 10 -7 10 -15 0 -8 -9 -15 -19 -15 -11 0 -23 -4 -26
-10 -3 -5 -19 -10 -36 -10 -16 0 -29 -4 -29 -10 0 -5 -22 -10 -50 -10 -27 0
-50 -4 -50 -10 0 -5 -22 -10 -50 -10 -27 0 -50 -4 -50 -9 0 -5 -28 -12 -62
-15 -35 -3 -101 -10 -148 -16 -453 -57 -1162 -63 -1262 -9 -10 5 -25 9 -33 9
-8 0 -15 7 -15 15 0 19 44 65 62 65 8 0 20 9 28 20 8 11 22 20 32 20 10 0 18
5 18 10 0 6 6 10 13 10 7 0 35 11 63 24 27 13 78 33 114 45 36 12 73 26 82 31
10 6 29 10 42 10 14 0 28 5 31 10 3 6 22 10 41 10 19 0 34 5 34 10 0 6 25 10
55 10 30 0 55 5 55 10 0 6 33 10 80 10 47 0 80 4 80 10 0 6 83 10 230 10 147
0 230 -4 230 -10z m-860 -40 c0 -5 -5 -10 -11 -10 -5 0 -7 5 -4 10 3 6 8 10
11 10 2 0 4 -4 4 -10z m1435 -112 c14 -6 25 -15 25 -20 0 -15 -31 -8 -57 12
-29 23 -11 28 32 8z m71 -42 c15 -15 29 -95 46 -266 5 -58 14 -141 19 -185 5
-44 13 -123 19 -175 15 -157 21 -182 46 -207 13 -12 30 -23 39 -23 8 0 15 -4
15 -10 0 -5 17 -10 39 -10 23 0 44 -6 52 -16 7 -9 40 -29 73 -46 34 -17 63
-34 64 -39 2 -5 12 -9 23 -9 10 0 19 -4 19 -8 0 -5 16 -14 35 -22 19 -8 35
-17 35 -22 0 -4 7 -8 15 -8 8 0 15 -4 15 -10 0 -5 7 -10 15 -10 8 0 15 -4 15
-10 0 -5 7 -10 15 -10 8 0 29 -13 47 -30 17 -16 35 -30 40 -30 4 0 38 -28 74
-62 36 -35 71 -65 77 -67 17 -6 37 -28 37 -41 0 -6 22 -32 48 -58 27 -26 65
-72 85 -102 20 -30 41 -60 47 -67 6 -7 15 -24 22 -38 6 -14 15 -25 20 -25 4 0
8 -9 8 -20 0 -11 5 -20 10 -20 6 0 10 -9 10 -19 0 -11 5 -23 10 -26 6 -3 10
-15 10 -26 0 -10 5 -19 10 -19 6 0 10 -11 10 -24 0 -14 5 -28 10 -31 6 -3 10
-17 10 -30 0 -13 5 -27 10 -30 6 -3 10 -19 10 -35 0 -16 4 -31 9 -34 10 -7 13
-25 37 -223 16 -133 16 -150 0 -280 -24 -198 -27 -217 -37 -227 -5 -6 -9 -22
-9 -37 0 -15 -4 -31 -10 -34 -5 -3 -10 -22 -10 -41 0 -19 -4 -34 -10 -34 -5 0
-10 -9 -10 -20 0 -11 -4 -20 -10 -20 -5 0 -10 -13 -10 -30 0 -16 -4 -30 -10
-30 -5 0 -10 -11 -10 -25 0 -14 -4 -25 -10 -25 -5 0 -10 -9 -10 -20 0 -11 -4
-20 -10 -20 -5 0 -10 -9 -10 -20 0 -11 -4 -20 -8 -20 -5 0 -14 -12 -21 -27
-17 -37 -83 -137 -93 -141 -4 -2 -8 -10 -8 -18 0 -8 -4 -14 -10 -14 -5 0 -10
-5 -10 -11 0 -13 -228 -239 -241 -239 -4 0 -19 -11 -33 -25 -14 -14 -32 -25
-41 -25 -8 0 -15 -4 -15 -10 0 -6 -118 -10 -335 -10 -186 0 -335 4 -335 9 0 5
-13 14 -30 21 -16 7 -30 16 -30 21 0 4 -8 10 -19 14 -10 3 -28 13 -39 23 -11
9 -33 26 -48 37 -15 11 -38 30 -50 43 -13 12 -28 22 -34 22 -5 0 -10 5 -10 10
0 6 -5 10 -11 10 -12 0 -199 190 -199 202 0 4 -16 23 -35 42 -19 20 -35 41
-35 48 0 8 -9 20 -20 28 -11 8 -20 22 -20 32 0 10 -4 18 -10 18 -5 0 -10 6
-10 14 0 8 -4 16 -8 18 -12 5 -102 184 -102 202 0 9 -4 16 -10 16 -5 0 -10 11
-10 24 0 14 -4 28 -10 31 -5 3 -10 17 -10 31 0 13 -4 24 -10 24 -5 0 -10 18
-10 40 0 22 -4 40 -10 40 -6 0 -10 28 -10 65 0 37 -4 65 -10 65 -6 0 -10 62
-10 165 0 103 4 165 10 165 6 0 10 27 10 60 0 33 4 60 10 60 6 0 10 18 10 39
0 22 5 43 10 46 6 3 10 19 10 36 0 16 5 29 10 29 6 0 10 7 10 15 0 8 4 23 9
33 5 9 22 44 37 77 16 33 32 62 37 63 4 2 7 12 7 23 0 10 4 19 9 19 5 0 14 14
21 30 7 17 16 30 21 30 5 0 9 7 9 15 0 8 5 15 10 15 6 0 10 7 10 15 0 8 5 15
10 15 6 0 10 5 10 10 0 6 19 30 43 55 23 24 53 56 67 72 25 28 90 86 149 133
18 14 38 30 44 35 21 17 71 46 90 52 9 3 17 9 17 14 0 5 9 9 20 9 11 0 20 4
20 8 0 4 16 14 35 21 19 7 35 17 35 22 0 5 6 9 13 9 35 0 56 59 78 215 22 150
15 282 -21 468 -6 27 -10 100 -10 163 0 69 -4 114 -10 114 -14 0 -12 28 3 45
15 18 16 18 33 1z m-2026 -52 c0 -18 -41 -74 -54 -74 -10 0 -7 27 6 55 9 21
48 37 48 19z m12235 -881 c22 -8 49 -19 60 -23 11 -5 49 -21 85 -38 36 -16 80
-35 98 -43 17 -8 32 -17 32 -21 0 -5 9 -8 20 -8 11 0 20 -4 20 -10 0 -5 7 -10
15 -10 8 0 15 -4 15 -10 0 -5 7 -10 15 -10 8 0 15 -4 15 -10 0 -5 7 -10 15
-10 9 0 27 -11 41 -25 14 -14 29 -25 33 -25 16 0 221 -207 221 -224 0 -9 5
-16 10 -16 6 0 10 -7 10 -15 0 -8 5 -15 10 -15 6 0 10 -7 10 -15 0 -9 8 -25
18 -36 11 -11 25 -39 33 -62 7 -23 16 -44 19 -47 18 -16 60 -224 60 -298 0
-64 -25 -162 -41 -162 -5 0 -9 -7 -9 -16 0 -9 -23 -38 -50 -65 -49 -48 -51
-49 -113 -49 -35 0 -74 6 -91 15 -15 8 -35 15 -42 15 -8 0 -14 5 -14 10 0 6
-8 10 -18 10 -10 0 -24 9 -32 20 -8 11 -20 20 -28 20 -7 0 -28 15 -46 33 -18
17 -54 50 -79 72 -26 22 -47 43 -47 48 0 4 -24 31 -52 61 -29 29 -60 63 -68
75 -8 13 -25 35 -38 49 -13 15 -30 39 -40 55 -9 15 -20 27 -24 27 -4 0 -8 9
-8 20 0 11 -4 20 -10 20 -5 0 -10 11 -10 24 0 14 -4 28 -10 31 -5 3 -10 24
-10 46 0 21 -4 39 -10 39 -6 0 -10 32 -10 75 0 43 -4 75 -10 75 -6 0 -10 45
-10 114 0 66 -4 117 -10 121 -6 3 -10 52 -10 111 0 119 -7 113 85 77z m-7696
-1034 c17 -17 31 -33 31 -36 0 -4 -18 -29 -60 -80 -6 -7 -15 -24 -22 -38 -6
-14 -15 -25 -20 -25 -4 0 -8 -7 -8 -15 0 -8 -4 -15 -10 -15 -5 0 -10 -6 -10
-14 0 -17 -24 -28 -45 -20 -8 4 -15 12 -15 20 0 8 -4 14 -10 14 -5 0 -10 12
-10 27 0 15 -5 41 -12 59 -9 27 -9 37 6 58 9 14 21 26 28 26 6 0 18 8 27 18
24 26 64 51 83 51 9 1 30 -13 47 -30z m171 -69 c0 -5 14 -10 30 -10 17 0 30
-4 30 -10 0 -5 8 -10 18 -10 10 0 24 -10 32 -21 8 -12 21 -27 28 -35 6 -7 12
-17 12 -23 0 -6 5 -11 10 -11 6 0 10 -9 10 -20 0 -11 5 -20 10 -20 6 0 10 -15
10 -34 0 -19 -4 -38 -10 -41 -5 -3 -10 -22 -10 -41 0 -55 -75 -114 -143 -114
-52 0 -130 28 -168 61 -19 16 -37 29 -41 29 -11 0 -10 37 0 42 4 2 19 23 33
48 45 81 54 95 62 101 5 3 9 32 9 63 l1 56 38 0 c22 0 39 -4 39 -10z m-100
-38 c0 -16 -20 -60 -45 -101 -25 -40 -45 -76 -45 -79 0 -4 -7 -15 -15 -26 -13
-17 -15 -17 -41 9 -15 15 -23 30 -18 34 5 3 15 18 23 33 8 15 22 37 33 47 10
11 18 24 18 28 0 4 11 21 25 37 14 16 25 33 25 38 0 4 9 8 20 8 15 0 20 -7 20
-28z m63 -1255 c33 -36 50 -97 27 -97 -5 0 -10 -6 -10 -12 0 -7 -12 -21 -26
-32 -21 -15 -36 -17 -78 -12 -28 4 -80 11 -116 15 -36 5 -85 14 -110 21 l-45
12 40 19 c21 10 45 19 52 19 7 0 13 4 13 8 0 5 23 15 50 22 28 7 50 17 50 22
0 4 11 8 25 8 14 0 25 5 25 10 0 15 89 12 103 -3z m-2765 -365 c15 -10 -21
-29 -83 -45 -56 -14 -235 -21 -235 -9 0 20 68 41 160 50 129 13 143 13 158 4z
m1412 -13 c41 -11 85 -23 98 -26 12 -3 22 -9 22 -14 0 -5 6 -9 13 -9 27 -1 50
-29 43 -54 -6 -24 -11 -26 -56 -26 -28 0 -50 5 -50 10 0 6 -22 10 -50 10 -27
0 -50 5 -50 10 0 6 -22 10 -50 10 -27 0 -50 4 -50 9 0 5 -19 11 -42 14 -45 6
-96 14 -138 23 -24 5 -24 6 -5 17 34 20 138 45 190 46 28 0 84 -9 125 -20z"/>
</g>
</svg>
