<svg width="345" height="595" viewBox="0 0 345 595" fill="none" xmlns="http://www.w3.org/2000/svg">
<path d="M179.153 15.0594C179.153 1.3016 168.346 0.703496 161.741 7.28324C155.136 13.863 149.132 1.3016 149.132 1.3016C152.83 -0.540026 162.692 6.20125 155.136 17.452C149.294 20.8293 146.596 20.9272 143.728 15.0594C148.221 12.1688 150.285 13.47 153.335 19.8447C139.037 50.022 129.808 66.8392 108.303 96.4096C89.5212 94.5863 78.8817 93.4188 59.668 112.56C47.0589 132.299 55.6782 149.804 51.8623 153.833C48.0464 157.863 23.9581 166.45 8.03089 186.732C-0.540557 207.942 -0.945504 219.861 5.02874 241.165C15.2094 258.96 23.3604 266.305 42.8558 274.064C73.138 281.433 102.899 271.672 116.108 252.53C129.318 233.389 128.117 213.65 120.912 182.545C120.107 179.486 140.126 163.404 140.126 163.404M179.153 15.0594C179.042 24.6659 188.76 22.8355 188.76 22.8355C188.76 22.8355 179.867 10.8095 163.542 22.8355M179.153 15.0594C173.718 22.5808 172.44 25.3783 171.348 29.4153L179.153 37.1914L166.544 32.4061C150.007 67.7107 132.118 103.588 134.421 105.98C136.725 108.373 147.91 121.015 149.132 134.094C151.065 148.362 141.533 164.594 140.126 163.404M140.126 163.404C109.956 169.732 115.011 82.6363 163.542 22.8355M140.126 163.404C166.294 171.202 233 264.331 270 241.165C307 218 275 197 263 197C220 197 134.421 303.5 153.335 406.5C172.249 509.5 317.386 592.68 344.5 594M163.542 22.8355C150.933 55.7345 125.115 108.971 122.113 108.373C119.11 107.775 107.102 102.391 107.102 102.391C107.102 102.391 92.912 122.729 78.3915 146.057C63.8709 169.386 94.2677 186.134 107.102 163.404C119.936 140.674 88.0392 130.786 80.0825 143.066C72.1258 155.347 83.0846 180.751 90.8903 182.545C98.6959 184.34 63.1629 268.213 8.03089 295" stroke="black" stroke-width="1.5"/>
</svg>
